<svg xmlns="http://www.w3.org/2000/svg" viewBox="0 0 50.57 271"><defs><style>.cls-1{fill:none;stroke:#6b8cc9;stroke-miterlimit:10;stroke-width:5px;}.cls-2{fill:#6b8cc9;}</style></defs><g id="Layer_2" data-name="Layer 2"><g id="Layer_5" data-name="Layer 5"><line class="cls-1" x1="25.28" x2="25.28" y2="248.71"/><path class="cls-2" d="M50.57,244.69C40,250.94,31.73,260.66,25.28,271A80.58,80.58,0,0,0,0,244.69v-6.24c10,6.55,18.73,14.43,25.28,24.16a89,89,0,0,1,25.29-24.26Z"/><path class="cls-2" d="M50.57,229.65c-10.55,6.24-18.84,16-25.29,26.3A80.55,80.55,0,0,0,0,229.65v-6.24c10,6.54,18.73,14.43,25.28,24.15A89.22,89.22,0,0,1,50.57,223.3Z"/></g></g></svg>