<svg xmlns="http://www.w3.org/2000/svg" viewBox="0 0 48 39.97"><defs><style>.cls-1{fill:#f3c2d5;}.cls-2{fill:#f2c2d5;}.cls-3{fill:#f1c1d5;}.cls-4{fill:#f0c1d5;}.cls-5{fill:#efc0d4;}.cls-6{fill:#eec0d4;}.cls-7{fill:#edbfd4;}.cls-8{fill:#ecbfd4;}.cls-9{fill:#ebbfd4;}.cls-10{fill:#eabed4;}.cls-11{fill:#e9bed4;}.cls-12{fill:#e8bdd4;}.cls-13{fill:#e7bdd3;}.cls-14{fill:#e6bdd3;}.cls-15{fill:#e5bcd3;}.cls-16{fill:#e4bcd3;}.cls-17{fill:#e3bbd3;}.cls-18{fill:#e2bbd3;}.cls-19{fill:#e1bad3;}.cls-20{fill:#e0bad3;}.cls-21{fill:#dfbad2;}.cls-22{fill:#deb9d2;}.cls-23{fill:#ddb9d2;}.cls-24{fill:#dcb8d2;}.cls-25{fill:#dbb8d2;}.cls-26{fill:#dab7d2;}.cls-27{fill:#d9b7d2;}.cls-28{fill:#d8b7d1;}.cls-29{fill:#d7b6d1;}.cls-30{fill:#d6b6d1;}.cls-31{fill:#d5b5d1;}.cls-32{fill:#d4b5d1;}.cls-33{fill:#d3b4d1;}.cls-34{fill:#d2b4d1;}.cls-35{fill:#d1b4d1;}.cls-36{fill:#d0b3d0;}.cls-37{fill:#cfb3d0;}.cls-38{fill:#ceb2d0;}.cls-39{fill:#cdb2d0;}.cls-40{fill:#ccb2d0;}.cls-41{fill:#cbb1d0;}.cls-42{fill:#cab1d0;}.cls-43{fill:#c9b0d0;}.cls-44{fill:#c8b0cf;}.cls-45{fill:#c7afcf;}.cls-46{fill:#c6afcf;}.cls-47{fill:#c5afcf;}.cls-48{fill:#c4aecf;}.cls-49{fill:#c3aecf;}.cls-50{fill:#c2adcf;}.cls-51{fill:#c1adce;}.cls-52{fill:#c0acce;}.cls-53{fill:#bfacce;}.cls-54{fill:#beacce;}.cls-55{fill:#bdabce;}.cls-56{fill:#bcabce;}.cls-57{fill:#bbaace;}.cls-58{fill:#baaace;}.cls-59{fill:#b9a9cd;}.cls-60{fill:#b8a9cd;}.cls-61{fill:#b7a9cd;}.cls-62{fill:#b6a8cd;}.cls-63{fill:#b5a8cd;}.cls-64{fill:#b4a7cd;}.cls-65{fill:#b3a7cd;}.cls-66{fill:#b2a7cd;}.cls-67{fill:#b1a6cc;}.cls-68{fill:#b0a6cc;}.cls-69{fill:#afa5cc;}.cls-70{fill:#aea5cc;}.cls-71{fill:#ada4cc;}.cls-72{fill:#aca4cc;}.cls-73{fill:#aba4cc;}.cls-74{fill:#aaa3cb;}.cls-75{fill:#a9a3cb;}.cls-76{fill:#a8a2cb;}.cls-77{fill:#a7a2cb;}.cls-78{fill:#a6a1cb;}.cls-79{fill:#a5a1cb;}.cls-80{fill:#a4a1cb;}.cls-81{fill:#a3a0cb;}.cls-82{fill:#a2a0ca;}.cls-83{fill:#a19fca;}.cls-84{fill:#a09fca;}.cls-85{fill:#9f9eca;}.cls-86{fill:#9e9eca;}.cls-87{fill:#9d9eca;}.cls-88{fill:#9c9dca;}.cls-89{fill:#9b9dc9;}.cls-90{fill:#9a9cc9;}.cls-91{fill:#999cc9;}.cls-92{fill:#989cc9;}.cls-93{fill:#979bc9;}.cls-94{fill:#969bc9;}.cls-95{fill:#959ac9;}.cls-96{fill:#949ac9;}.cls-97{fill:#9399c8;}.cls-98{fill:#9299c8;}.cls-99{fill:#9199c8;}.cls-100{fill:#9098c8;}.cls-101{fill:#8f98c8;}.cls-102{fill:#8e97c8;}.cls-103{fill:#8d97c8;}.cls-104{fill:#8c96c8;}.cls-105{fill:#8b96c7;}.cls-106{fill:#8a96c7;}.cls-107{fill:#8995c7;}.cls-108{fill:#8895c7;}.cls-109{fill:#8794c7;}.cls-110{fill:#8694c7;}.cls-111{fill:#8593c7;}.cls-112{fill:#8493c6;}.cls-113{fill:#8393c6;}.cls-114{fill:#8292c6;}.cls-115{fill:#8192c6;}.cls-116{fill:#8091c6;}.cls-117{fill:#7f91c6;}.cls-118{fill:#7e91c6;}.cls-119{fill:#7d90c6;}.cls-120{fill:#7c90c5;}.cls-121{fill:#7b8fc5;}.cls-122{fill:#7a8fc5;}.cls-123{fill:#798ec5;}.cls-124{fill:#788ec5;}.cls-125{fill:#778ec5;}.cls-126{fill:#768dc5;}.cls-127{fill:#758dc5;}.cls-128{fill:#748cc4;}.cls-129{fill:#738cc4;}.cls-130{fill:#728bc4;}.cls-131{fill:#718bc4;}.cls-132{fill:#7e90c6;}.cls-133{fill:#8a95c7;}.cls-134{fill:#9198c8;}.cls-135{fill:#969ac9;}.cls-136{fill:#989bc9;}.cls-137{fill:#9b9dca;}.cls-138{fill:#9d9dca;}.cls-139{fill:#a29fca;}.cls-140{fill:#a4a0cb;}.cls-141{fill:#a9a2cb;}.cls-142{fill:#aba3cc;}.cls-143{fill:#b1a6cd;}.cls-144{fill:#b9aace;}.cls-145{fill:#c1adcf;}.cls-146{fill:#c8b0d0;}.cls-147{fill:#ccb1d0;}.cls-148{fill:#d0b3d1;}.cls-149{fill:#d7b6d2;}.cls-150{fill:#d8b6d2;}.cls-151{fill:#dfb9d3;}.cls-152{fill:#e4bbd3;}.cls-153{fill:#e6bcd3;}.cls-154{fill:#e7bdd4;}</style></defs><g id="Layer_2" data-name="Layer 2"><g id="Layer_5" data-name="Layer 5"><polygon class="cls-1" points="40.03 7.33 36.76 7.33 33.5 7.33 33.5 4.07 33.5 0.81 36.76 0.81 40.03 0.81 40.03 4.07 40.03 7.33"/><path class="cls-2" d="M33.5,1.06H40V7.58H33.51s0-3.25,0-3.25Z"/><path class="cls-3" d="M33.5,1.31H40V7.84H36.77l-3.24,0s0-3.24,0-3.25S33.5,1.32,33.5,1.31Z"/><path class="cls-4" d="M33.5,1.56H40V8.09h0l-3.25,0s-3.22,0-3.24,0,0-3.22,0-3.23S33.5,1.58,33.5,1.56Z"/><path class="cls-5" d="M33.5,1.81H40V8.34h0l-3.24,0s-3.21,0-3.23,0,0-3.2,0-3.23S33.5,1.84,33.5,1.81Z"/><path class="cls-6" d="M33.5,2.06H40V8.59h0l-3.24,0s-3.19,0-3.22-.06,0-3.18,0-3.21S33.5,2.1,33.5,2.06Z"/><path class="cls-7" d="M33.5,2.31H40V8.84h0l-3.23,0s-3.18,0-3.21-.07-.05-3.17-.07-3.21S33.5,2.35,33.5,2.31Z"/><path class="cls-8" d="M33.5,2.56H40V9.09h0c-.05,0-3.19,0-3.23,0S33.63,9,33.6,9s-.05-3.16-.07-3.2S33.5,2.61,33.5,2.56Z"/><path class="cls-9" d="M33.5,2.81H40V9.34h0c-.06,0-3.17,0-3.22,0s-3.16-.05-3.19-.09S33.55,6.08,33.53,6,33.5,2.87,33.5,2.81Z"/><path class="cls-10" d="M33.5,3.07H40V9.59h0c-.07,0-3.16,0-3.22,0s-3.14-.06-3.18-.1-.07-3.13-.09-3.18S33.5,3.13,33.5,3.07Z"/><path class="cls-11" d="M33.5,3.32H40V9.84h0c-.07,0-3.15,0-3.21,0s-3.13-.06-3.17-.1-.09-3.12-.11-3.18S33.5,3.39,33.5,3.32Z"/><path class="cls-12" d="M33.5,3.57H40v6.52h0c-.08,0-3.14,0-3.21,0s-3.11-.07-3.16-.12-.09-3.09-.12-3.16S33.5,3.64,33.5,3.57Z"/><path class="cls-13" d="M33.5,3.82H40v6.53h0c-.09,0-3.13,0-3.2,0s-3.1-.08-3.15-.13-.1-3.08-.13-3.15S33.5,3.9,33.5,3.82Z"/><path class="cls-14" d="M33.5,4.07H40V10.6h0c-.09,0-3.12,0-3.19,0s-3.09-.09-3.15-.14-.11-3.07-.14-3.15S33.5,4.16,33.5,4.07Z"/><path class="cls-15" d="M33.5,4.32H40v6.53h0c-.1,0-3.1,0-3.19-.06s-3.07-.08-3.13-.15-.12-3.05-.15-3.13S33.5,4.42,33.5,4.32Z"/><path class="cls-16" d="M33.5,4.57H40V11.1h0c-.11,0-3.09,0-3.18-.06s-3.06-.09-3.13-.16-.12-3-.16-3.13S33.5,4.68,33.5,4.57Z"/><path class="cls-17" d="M33.5,4.82H40v6.53h0c-.11,0-3.08,0-3.18-.06s-3-.1-3.11-.18-.14-3-.18-3.11S33.5,4.93,33.5,4.82Z"/><path class="cls-18" d="M33.5,5.07H40V11.6h0c-.12,0-3.07,0-3.17-.07s-3-.1-3.11-.18-.14-3-.18-3.11S33.5,5.19,33.5,5.07Z"/><path class="cls-19" d="M33.5,5.33H40v6.52h0c-.13,0-3.06,0-3.17-.07s-3-.11-3.1-.19-.14-3-.19-3.1S33.5,5.45,33.5,5.33Z"/><path class="cls-20" d="M33.5,5.58H40V12.1h0c-.14,0-3.05,0-3.16-.07s-3-.12-3.09-.21-.16-3-.21-3.09S33.5,5.71,33.5,5.58Z"/><path class="cls-21" d="M33.5,5.83H40v6.52h0c-.14,0-3,0-3.16-.07s-3-.13-3.08-.22-.16-3-.21-3.08S33.5,6,33.5,5.83Z"/><path class="cls-22" d="M33.5,6.08H40V12.6h0c-.15,0-3,0-3.15-.08s-3-.13-3.07-.22-.17-3-.23-3.08S33.5,6.22,33.5,6.08Z"/><path class="cls-23" d="M33.5,6.33H40v6.53h0c-.16,0-3,0-3.14-.09s-3-.14-3.07-.24-.18-2.93-.23-3.06S33.5,6.48,33.5,6.33Z"/><path class="cls-24" d="M33.5,6.58H40v6.53h0c-.16,0-3,0-3.14-.09s-3-.15-3-.25-.19-2.92-.25-3S33.5,6.74,33.5,6.58Z"/><path class="cls-25" d="M33.5,6.83H40v6.53h0c-.17,0-3,0-3.13-.1s-2.94-.15-3-.25-.19-2.9-.26-3S33.5,7,33.5,6.83Z"/><path class="cls-26" d="M33.5,7.08H40v6.53h0c-.18,0-3,0-3.13-.1s-2.92-.15-3-.27-.21-2.88-.27-3S33.5,7.26,33.5,7.08Z"/><path class="cls-27" d="M33.5,7.33H40v6.53h0c-.18,0-3,0-3.12-.1s-2.91-.16-3-.28-.21-2.87-.28-3S33.5,7.51,33.5,7.33Z"/><path class="cls-28" d="M33.5,7.58H40v6.53h0c-.19,0-3,0-3.12-.11s-2.89-.16-3-.29-.23-2.85-.29-3S33.5,7.77,33.5,7.58Z"/><path class="cls-29" d="M33.5,7.84H40v6.52h0c-.2,0-2.94,0-3.11-.11s-2.88-.17-3-.3-.23-2.84-.3-3S33.5,8,33.5,7.84Z"/><path class="cls-30" d="M33.5,8.09H40v6.52h0c-.2,0-2.93,0-3.11-.11s-2.86-.18-3-.31-.24-2.83-.32-3S33.5,8.29,33.5,8.09Z"/><path class="cls-31" d="M33.5,8.34H40v6.52h0c-.21,0-2.92,0-3.1-.11s-2.85-.19-3-.33-.25-2.81-.32-3S33.5,8.55,33.5,8.34Z"/><path class="cls-32" d="M33.5,8.59H40v6.53h0c-.22,0-2.91,0-3.09-.13s-2.84-.19-3-.33-.26-2.79-.34-3S33.5,8.8,33.5,8.59Z"/><path class="cls-33" d="M33.5,8.84H40v6.53h0c-.23,0-2.9,0-3.09-.13s-2.82-.2-3-.34-.26-2.78-.34-3S33.5,9.06,33.5,8.84Z"/><path class="cls-34" d="M33.5,9.09H40v6.53h0c-.23,0-2.89,0-3.08-.13s-2.81-.21-3-.36-.28-2.76-.36-3S33.5,9.32,33.5,9.09Z"/><path class="cls-35" d="M33.5,9.34H40v6.53h0c-.24,0-2.87,0-3.08-.14s-2.8-.21-3-.36-.28-2.75-.37-2.95S33.5,9.58,33.5,9.34Z"/><path class="cls-36" d="M33.5,9.59H40v6.53h0c-.25,0-2.86-.05-3.07-.14s-2.79-.22-3-.38-.28-2.73-.37-2.94S33.5,9.84,33.5,9.59Z"/><path class="cls-37" d="M33.5,9.84H40v6.53h0c-.25,0-2.85-.05-3.07-.14S34.19,16,34,15.84s-.3-2.72-.39-2.93S33.5,10.09,33.5,9.84Z"/><path class="cls-38" d="M33.5,10.09H40v6.53h0c-.26,0-2.84-.05-3.06-.14s-2.76-.23-2.93-.4-.3-2.71-.39-2.93S33.5,10.35,33.5,10.09Z"/><path class="cls-39" d="M33.5,10.35H40v6.52h0c-.27,0-2.83-.05-3.06-.15s-2.74-.23-2.91-.41-.31-2.68-.41-2.91S33.5,10.61,33.5,10.35Z"/><path class="cls-40" d="M33.5,10.6H40v6.52h0c-.27,0-2.82-.05-3.05-.15s-2.73-.24-2.91-.42-.32-2.67-.42-2.91A30.34,30.34,0,0,1,33.5,10.6Z"/><path class="cls-41" d="M33.5,10.85H40v6.52h0a30.34,30.34,0,0,1-3-.15c-.24-.1-2.72-.25-2.9-.43s-.33-2.66-.43-2.9A30.31,30.31,0,0,1,33.5,10.85Z"/><path class="cls-42" d="M33.5,11.1H40v6.53h0a27.59,27.59,0,0,1-3-.17A29.08,29.08,0,0,1,34.1,17c-.18-.18-.33-2.64-.44-2.89A30.11,30.11,0,0,1,33.5,11.1Z"/><path class="cls-43" d="M33.5,11.35H40v6.53h0a27.41,27.41,0,0,1-3-.17c-.26-.11-2.69-.26-2.88-.45a28.86,28.86,0,0,1-.45-2.88A27.41,27.41,0,0,1,33.5,11.35Z"/><path class="cls-44" d="M33.5,11.6H40v6.53h0A27.41,27.41,0,0,1,37,18c-.26-.11-2.67-.27-2.87-.46s-.35-2.62-.46-2.87A27.41,27.41,0,0,1,33.5,11.6Z"/><path class="cls-45" d="M33.5,11.85H40v6.53h0a27.09,27.09,0,0,1-3-.17c-.27-.12-2.66-.28-2.86-.48s-.36-2.6-.48-2.86A27.09,27.09,0,0,1,33.5,11.85Z"/><path class="cls-46" d="M33.5,12.1H40v6.53h0a24.87,24.87,0,0,1-3-.18A28.22,28.22,0,0,1,34.16,18a28.22,28.22,0,0,1-.48-2.85A25,25,0,0,1,33.5,12.1Z"/><path class="cls-47" d="M33.5,12.35H40v6.53h0a24.83,24.83,0,0,1-3-.18,27.52,27.52,0,0,1-2.84-.5,27.05,27.05,0,0,1-.5-2.84A24.71,24.71,0,0,1,33.5,12.35Z"/><path class="cls-48" d="M33.5,12.6H40v6.53h0A24.83,24.83,0,0,1,37,19a27.31,27.31,0,0,1-2.83-.51,24.9,24.9,0,0,1-.5-2.83A24.82,24.82,0,0,1,33.5,12.6Z"/><path class="cls-49" d="M33.5,12.86H40v6.52h0a22.69,22.69,0,0,1-3-.19,24.32,24.32,0,0,1-2.82-.51,24.88,24.88,0,0,1-.52-2.83A24.49,24.49,0,0,1,33.5,12.86Z"/><path class="cls-50" d="M33.5,13.11H40v6.52h0a22.53,22.53,0,0,1-3-.19,22.35,22.35,0,0,1-2.82-.53,26.89,26.89,0,0,1-.53-2.81A24.49,24.49,0,0,1,33.5,13.11Z"/><path class="cls-51" d="M33.5,13.36H40v6.52h0a24.36,24.36,0,0,1-3-.19,23.93,23.93,0,0,1-2.8-.54,22.53,22.53,0,0,1-.54-2.81A22.48,22.48,0,0,1,33.5,13.36Z"/><path class="cls-52" d="M33.5,13.61H40v6.53h0a22.24,22.24,0,0,1-3-.21,22,22,0,0,1-2.8-.54,24.33,24.33,0,0,1-.55-2.8A22.48,22.48,0,0,1,33.5,13.61Z"/><path class="cls-53" d="M33.5,13.86H40v6.53h0a22.36,22.36,0,0,1-3-.21,22.21,22.21,0,0,1-2.79-.56,25.49,25.49,0,0,1-.56-2.79A22.22,22.22,0,0,1,33.5,13.86Z"/><path class="cls-54" d="M33.5,14.11H40v6.53h0a22.21,22.21,0,0,1-3-.21,23.56,23.56,0,0,1-2.78-.57,21.7,21.7,0,0,1-.57-2.78A20.66,20.66,0,0,1,33.5,14.11Z"/><path class="cls-55" d="M33.5,14.36H40v6.53h0a22.21,22.21,0,0,1-3-.21,21.9,21.9,0,0,1-2.77-.59,23.21,23.21,0,0,1-.58-2.76A22.21,22.21,0,0,1,33.5,14.36Z"/><path class="cls-56" d="M33.5,14.61H40v6.53h0a20.51,20.51,0,0,1-3-.22,21.38,21.38,0,0,1-2.76-.59,21.38,21.38,0,0,1-.59-2.76A20.51,20.51,0,0,1,33.5,14.61Z"/><path class="cls-57" d="M33.5,14.86H40v6.53h0a20.51,20.51,0,0,1-3-.22,21.6,21.6,0,0,1-2.75-.6,21.6,21.6,0,0,1-.6-2.75A20.51,20.51,0,0,1,33.5,14.86Z"/><path class="cls-58" d="M33.5,15.12H40v6.52h0a20.27,20.27,0,0,1-3-.22,21.07,21.07,0,0,1-2.74-.62,20.71,20.71,0,0,1-.62-2.74A20.24,20.24,0,0,1,33.5,15.12Z"/><path class="cls-59" d="M33.5,15.37H40v6.52h0a18.73,18.73,0,0,1-2.94-.23A19.55,19.55,0,0,1,34.35,21a20.56,20.56,0,0,1-.62-2.73A18.92,18.92,0,0,1,33.5,15.37Z"/><path class="cls-60" d="M33.5,15.62H40v6.52h0a18.92,18.92,0,0,1-2.94-.23,20.77,20.77,0,0,1-2.72-.63,19.1,19.1,0,0,1-.64-2.73A18.69,18.69,0,0,1,33.5,15.62Z"/><path class="cls-61" d="M33.5,15.87H40V22.4h0a18.68,18.68,0,0,1-2.93-.24,17.71,17.71,0,0,1-2.72-.65,18.82,18.82,0,0,1-.64-2.71A17.64,17.64,0,0,1,33.5,15.87Z"/><path class="cls-62" d="M33.5,16.12H40v6.53h0a18.12,18.12,0,0,1-5.63-.9A18.83,18.83,0,0,1,33.74,19,18.56,18.56,0,0,1,33.5,16.12Z"/><path class="cls-63" d="M33.5,16.37H40V22.9h0a17.43,17.43,0,0,1-2.92-.25,17.46,17.46,0,0,1-2.7-.66,19,19,0,0,1-.67-2.7A18.56,18.56,0,0,1,33.5,16.37Z"/><path class="cls-64" d="M33.5,16.62H40v6.53h0a17.43,17.43,0,0,1-2.92-.25,17.23,17.23,0,0,1-2.68-.68,17.61,17.61,0,0,1-.93-5.6Z"/><path class="cls-65" d="M33.5,16.87H40V23.4h0a17.22,17.22,0,0,1-2.91-.25,18.11,18.11,0,0,1-2.68-.69,17.12,17.12,0,0,1-.94-5.59Z"/><path class="cls-66" d="M33.5,17.12H40v6.53h0a16.4,16.4,0,0,1-2.91-.26,15.71,15.71,0,0,1-2.66-.7,15.71,15.71,0,0,1-.7-2.66A16.32,16.32,0,0,1,33.5,17.12Z"/><path class="cls-67" d="M33.5,17.37H40V23.9h0a16.21,16.21,0,0,1-2.9-.26,16.71,16.71,0,0,1-2.66-.71,16.71,16.71,0,0,1-.71-2.66A16.21,16.21,0,0,1,33.5,17.37Z"/><path class="cls-68" d="M33.5,17.63H40v6.52h0a16,16,0,0,1-2.89-.26,16.31,16.31,0,0,1-2.65-.72,15.88,15.88,0,0,1-.73-2.65A16.18,16.18,0,0,1,33.5,17.63Z"/><path class="cls-69" d="M33.5,17.88H40V24.4h0a16.1,16.1,0,0,1-2.89-.26,16.49,16.49,0,0,1-2.64-.74,15.5,15.5,0,0,1-.73-2.64A16,16,0,0,1,33.5,17.88Z"/><path class="cls-70" d="M33.5,18.13H40v6.52h0a15,15,0,0,1-2.88-.27,15.51,15.51,0,0,1-2.64-.74A16.37,16.37,0,0,1,33.77,21,16,16,0,0,1,33.5,18.13Z"/><path class="cls-71" d="M33.5,18.38H40v6.53h0a15,15,0,0,1-2.88-.28,16.26,16.26,0,0,1-2.62-.75,14.55,14.55,0,0,1-.75-2.63A15,15,0,0,1,33.5,18.38Z"/><path class="cls-72" d="M33.5,18.63H40v6.53h0a14.86,14.86,0,0,1-2.87-.28,14.47,14.47,0,0,1-2.62-.77,15.2,15.2,0,0,1-.76-2.61A15,15,0,0,1,33.5,18.63Z"/><path class="cls-73" d="M33.5,18.88H40v6.53h0a15,15,0,0,1-5.47-1.06,14.54,14.54,0,0,1-1.06-5.47Z"/><path class="cls-74" d="M33.5,19.13H40v6.53h0a14.7,14.7,0,0,1-5.46-1.07,14.28,14.28,0,0,1-.78-2.6A14.08,14.08,0,0,1,33.5,19.13Z"/><path class="cls-75" d="M33.5,19.38H40v6.53h0a14.08,14.08,0,0,1-2.86-.29,13.86,13.86,0,0,1-2.58-.8,13.73,13.73,0,0,1-.8-2.59A13.91,13.91,0,0,1,33.5,19.38Z"/><path class="cls-76" d="M33.5,19.63H40v6.53h0a13.31,13.31,0,0,1-2.85-.3,13.86,13.86,0,0,1-2.58-.8,14.24,14.24,0,0,1-1.1-5.43Z"/><path class="cls-77" d="M33.5,19.88H40v6.53h0a13.81,13.81,0,0,1-2.84-.3,12.87,12.87,0,0,1-2.57-.82,13,13,0,0,1-.82-2.56A14,14,0,0,1,33.5,19.88Z"/><path class="cls-78" d="M33.5,20.14H40v6.52h0a13.34,13.34,0,0,1-5.4-1.13,13.34,13.34,0,0,1-1.13-5.39Z"/><path class="cls-79" d="M33.5,20.39H40v6.52h0a13.79,13.79,0,0,1-2.83-.3,13.38,13.38,0,0,1-2.55-.84,12.92,12.92,0,0,1-.84-2.55A13.12,13.12,0,0,1,33.5,20.39Z"/><path class="cls-80" d="M33.5,20.64H40v6.52h0a13.12,13.12,0,0,1-2.83-.31A12.85,12.85,0,0,1,34.66,26a12.63,12.63,0,0,1-.85-2.54A13,13,0,0,1,33.5,20.64Z"/><path class="cls-81" d="M33.5,20.89H40v6.53h0a13,13,0,0,1-2.82-.32,12.55,12.55,0,0,1-2.53-.86,12,12,0,0,1-.86-2.53A12.44,12.44,0,0,1,33.5,20.89Z"/><path class="cls-82" d="M33.5,21.14H40v6.53h0a13,13,0,0,1-2.82-.32,13.36,13.36,0,0,1-2.52-.87A12.57,12.57,0,0,1,33.82,24,12.28,12.28,0,0,1,33.5,21.14Z"/><path class="cls-83" d="M33.5,21.39H40v6.53h0a12.28,12.28,0,0,1-2.81-.33,11.82,11.82,0,0,1-2.51-.88,11.84,11.84,0,0,1-.89-2.51A12.87,12.87,0,0,1,33.5,21.39Z"/><path class="cls-84" d="M33.5,21.64H40v6.53h0a12.28,12.28,0,0,1-2.81-.33,12,12,0,0,1-2.5-.89,11.84,11.84,0,0,1-.89-2.51A12.13,12.13,0,0,1,33.5,21.64Z"/><path class="cls-85" d="M33.5,21.89H40v6.53h0a12.13,12.13,0,0,1-2.8-.33,11.18,11.18,0,0,1-2.49-.91,11.18,11.18,0,0,1-.91-2.49A12.2,12.2,0,0,1,33.5,21.89Z"/><path class="cls-86" d="M33.5,22.14H40v6.53h0a12.11,12.11,0,0,1-2.79-.33,11.72,11.72,0,0,1-2.49-.92,11,11,0,0,1-.91-2.49A11.59,11.59,0,0,1,33.5,22.14Z"/><path class="cls-87" d="M33.5,22.4H40v6.52h0a11.69,11.69,0,0,1-5.27-1.26,11.43,11.43,0,0,1-.92-2.48A11.57,11.57,0,0,1,33.5,22.4Z"/><path class="cls-88" d="M33.5,22.65H40v6.52h0a11.44,11.44,0,0,1-2.78-.34,10.72,10.72,0,0,1-2.47-.94,10.81,10.81,0,0,1-.94-2.46A11.57,11.57,0,0,1,33.5,22.65Z"/><path class="cls-89" d="M33.5,22.9H40v6.52h0a11.5,11.5,0,0,1-2.78-.34,11.32,11.32,0,0,1-2.46-.95,10.81,10.81,0,0,1-.94-2.46A11,11,0,0,1,33.5,22.9Z"/><path class="cls-90" d="M33.5,23.15H40v6.53h0a10.89,10.89,0,0,1-2.77-.36,10.57,10.57,0,0,1-2.45-.95,11,11,0,0,1-1.31-5.22Z"/><path class="cls-91" d="M33.5,23.4H40v6.53h0a10.89,10.89,0,0,1-2.77-.36,10.71,10.71,0,0,1-2.44-1,10.71,10.71,0,0,1-1-2.44A11.34,11.34,0,0,1,33.5,23.4Z"/><path class="cls-92" d="M33.5,23.65H40v6.53h0a10.87,10.87,0,0,1-2.76-.36,10.47,10.47,0,0,1-2.43-1,10.22,10.22,0,0,1-1-2.43A10.87,10.87,0,0,1,33.5,23.65Z"/><path class="cls-93" d="M33.5,23.9H40v6.53h0a10.87,10.87,0,0,1-2.76-.36,11.07,11.07,0,0,1-2.42-1,10.49,10.49,0,0,1-1-2.43A10.74,10.74,0,0,1,33.5,23.9Z"/><path class="cls-94" d="M33.5,24.15H40v6.53h0a10.32,10.32,0,0,1-2.75-.37,9.94,9.94,0,0,1-2.41-1,9.56,9.56,0,0,1-1-2.41A10.32,10.32,0,0,1,33.5,24.15Z"/><path class="cls-95" d="M33.5,24.4H40v6.53h0a10.24,10.24,0,0,1-2.74-.37,10,10,0,0,1-2.41-1,10.38,10.38,0,0,1-1-2.41A10.19,10.19,0,0,1,33.5,24.4Z"/><path class="cls-96" d="M33.5,24.65H40v6.53h0a10.24,10.24,0,0,1-2.74-.37,9.49,9.49,0,0,1-2.39-1,9.87,9.87,0,0,1-1.4-5.13Z"/><path class="cls-97" d="M33.5,24.91H40v6.52h0a9.73,9.73,0,0,1-2.73-.38,9.49,9.49,0,0,1-2.39-1,10,10,0,0,1-1-2.38A9.84,9.84,0,0,1,33.5,24.91Z"/><path class="cls-98" d="M33.5,25.16H40v6.52h0a9.74,9.74,0,0,1-5.1-1.42,9.83,9.83,0,0,1-1-2.38A10.1,10.1,0,0,1,33.5,25.16Z"/><path class="cls-99" d="M33.5,25.41H40v6.52h0a9.72,9.72,0,0,1-2.72-.38,9.42,9.42,0,0,1-2.37-1.06,9.68,9.68,0,0,1-1.44-5.08Z"/><path class="cls-100" d="M33.5,25.66H40v6.53h0A9.62,9.62,0,0,1,35,30.73a9.21,9.21,0,0,1-1.07-2.36A9.65,9.65,0,0,1,33.5,25.66Z"/><path class="cls-101" d="M33.5,25.91H40v6.53h0a9.25,9.25,0,0,1-2.71-.4A9.15,9.15,0,0,1,35,31a9.28,9.28,0,0,1-1.47-5.06Z"/><path class="cls-102" d="M33.5,26.16H40v6.53h0a9.3,9.3,0,0,1-2.71-.4A9.06,9.06,0,0,1,35,31.2a8.8,8.8,0,0,1-1.09-2.34A9.18,9.18,0,0,1,33.5,26.16Z"/><path class="cls-103" d="M33.5,26.41H40v6.53h0a9.18,9.18,0,0,1-2.7-.4A9.08,9.08,0,0,1,35,31.44a9.08,9.08,0,0,1-1.1-2.33A9.18,9.18,0,0,1,33.5,26.41Z"/><path class="cls-104" d="M33.5,26.66H40v6.53h0a9.17,9.17,0,0,1-5-1.51,9.08,9.08,0,0,1-1.1-2.33A8.8,8.8,0,0,1,33.5,26.66Z"/><path class="cls-105" d="M33.5,26.91H40v6.53h0A9.17,9.17,0,0,1,37.34,33,8.68,8.68,0,0,1,35,31.91a8.68,8.68,0,0,1-1.12-2.31A9.17,9.17,0,0,1,33.5,26.91Z"/><path class="cls-106" d="M33.5,27.16H40v6.53h0a8.75,8.75,0,0,1-5-1.54,8.86,8.86,0,0,1-1.13-2.31A9.05,9.05,0,0,1,33.5,27.16Z"/><path class="cls-107" d="M33.5,27.42H40v6.52h0a8.74,8.74,0,0,1-2.68-.42,8,8,0,0,1-2.29-1.14,8.46,8.46,0,0,1-1.14-2.29A8.73,8.73,0,0,1,33.5,27.42Z"/><path class="cls-108" d="M33.5,27.67H40v6.52h0a8.63,8.63,0,0,1-2.67-.42,8.34,8.34,0,0,1-2.29-1.15,8.57,8.57,0,0,1-1.15-2.28A8.73,8.73,0,0,1,33.5,27.67Z"/><path class="cls-109" d="M33.5,27.92H40v6.52h0A8.68,8.68,0,0,1,37.36,34a8.53,8.53,0,0,1-2.27-1.16,8.17,8.17,0,0,1-1.16-2.28A8.33,8.33,0,0,1,33.5,27.92Z"/><path class="cls-110" d="M33.5,28.17H40V34.7h0a8.57,8.57,0,0,1-2.66-.43,8.16,8.16,0,0,1-2.27-1.18,8.29,8.29,0,0,1-1.6-4.92Z"/><path class="cls-111" d="M33.5,28.42H40V35h0a8.34,8.34,0,0,1-2.66-.44,8,8,0,0,1-2.25-1.18,8.13,8.13,0,0,1-1.19-2.26A8.27,8.27,0,0,1,33.5,28.42Z"/><path class="cls-112" d="M33.5,28.67H40V35.2h0a8.27,8.27,0,0,1-2.65-.44,8.07,8.07,0,0,1-2.25-1.19,8.16,8.16,0,0,1-1.63-4.9Z"/><path class="cls-113" d="M33.5,28.92H40v6.53h0A8.17,8.17,0,0,1,37.39,35a7.92,7.92,0,0,1-2.24-1.21,7.92,7.92,0,0,1-1.21-2.24A8.17,8.17,0,0,1,33.5,28.92Z"/><path class="cls-114" d="M33.5,29.17H40V35.7h0a7.91,7.91,0,0,1-2.64-.45A7.63,7.63,0,0,1,35.16,34,7.76,7.76,0,0,1,34,31.81,7.91,7.91,0,0,1,33.5,29.17Z"/><path class="cls-115" d="M33.5,29.42H40V36h0a7.85,7.85,0,0,1-2.63-.45,7.5,7.5,0,0,1-2.22-1.23A7.5,7.5,0,0,1,34,32.05,7.85,7.85,0,0,1,33.5,29.42Z"/><path class="cls-116" d="M33.5,29.68H40V36.2h0a7.85,7.85,0,0,1-2.63-.45,7.6,7.6,0,0,1-2.21-1.24,7.65,7.65,0,0,1-1.69-4.83Z"/><path class="cls-117" d="M33.5,29.93H40v6.52h0A7.79,7.79,0,0,1,37.41,36a7.67,7.67,0,0,1-2.2-1.25A7.4,7.4,0,0,1,34,32.54,7.5,7.5,0,0,1,33.5,29.93Z"/><path class="cls-118" d="M33.5,30.18H40V36.7h0a7.6,7.6,0,0,1-2.62-.46A7.11,7.11,0,0,1,35.22,35a7.48,7.48,0,0,1-1.72-4.8Z"/><path class="cls-119" d="M33.5,30.43H40V37h0a7.51,7.51,0,0,1-2.61-.47,7.18,7.18,0,0,1-2.18-1.27A7.42,7.42,0,0,1,34,33,7.51,7.51,0,0,1,33.5,30.43Z"/><path class="cls-120" d="M33.5,30.68H40v6.53h0a7.33,7.33,0,0,1-4.78-1.75A7.2,7.2,0,0,1,34,33.28,7.45,7.45,0,0,1,33.5,30.68Z"/><path class="cls-121" d="M33.5,30.93H40v6.53h0a7.19,7.19,0,0,1-2.6-.48,7.1,7.1,0,0,1-2.17-1.29A7.34,7.34,0,0,1,34,33.53,7.45,7.45,0,0,1,33.5,30.93Z"/><path class="cls-122" d="M33.5,31.18H40v6.53h0a7.23,7.23,0,0,1-4.75-1.78A7,7,0,0,1,34,33.77,7.14,7.14,0,0,1,33.5,31.18Z"/><path class="cls-123" d="M33.5,31.43H40V38h0a7.14,7.14,0,0,1-2.59-.48,7.26,7.26,0,0,1-2.15-1.31A7.26,7.26,0,0,1,34,34,7.18,7.18,0,0,1,33.5,31.43Z"/><path class="cls-124" d="M33.5,31.68H40v6.53h0a7.08,7.08,0,0,1-4.72-1.81,7.08,7.08,0,0,1-1.81-4.72Z"/><path class="cls-125" d="M33.5,31.93H40v6.53h0A6.93,6.93,0,0,1,37.45,38a7,7,0,0,1-2.13-1.33A7,7,0,0,1,34,34.51,6.93,6.93,0,0,1,33.5,31.93Z"/><path class="cls-126" d="M33.5,32.19H40v6.52h0a6.81,6.81,0,0,1-4.69-1.84A6.79,6.79,0,0,1,34,34.75,7,7,0,0,1,33.5,32.19Z"/><path class="cls-127" d="M33.5,32.44H40V39h0a6.84,6.84,0,0,1-2.57-.49,7,7,0,0,1-2.11-1.36A6.74,6.74,0,0,1,34,35,6.83,6.83,0,0,1,33.5,32.44Z"/><path class="cls-128" d="M33.5,32.69H40v6.52h0a6.6,6.6,0,0,1-2.56-.5,6.72,6.72,0,0,1-2.1-1.36A6.62,6.62,0,0,1,34,35.24,6.74,6.74,0,0,1,33.5,32.69Z"/><path class="cls-129" d="M33.5,32.94H40v6.53h0A6.52,6.52,0,0,1,37.48,39a6.6,6.6,0,0,1-2.1-1.38,6.58,6.58,0,0,1-1.88-4.64Z"/><path class="cls-130" d="M33.5,33.19H40v6.53h0a6.55,6.55,0,0,1-4.63-1.9,6.55,6.55,0,0,1-1.9-4.63Z"/><path class="cls-131" d="M40,40h0a6.52,6.52,0,0,1-6.53-6.53H40V40Z"/><path class="cls-131" d="M31.69,7.33h0A6.52,6.52,0,0,1,25.16.81h6.53Z"/><path class="cls-130" d="M31.81,7.33h0A6.52,6.52,0,0,1,25.29.81h0s6.52,0,6.52,0Z"/><path class="cls-129" d="M31.94,7.33h-.1A6.51,6.51,0,0,1,25.41.81h0c.06,0,6.53,0,6.53.1Z"/><path class="cls-128" d="M32.06,7.33h-.15A6.5,6.5,0,0,1,25.54.81h0c.08,0,6.52.06,6.52.15Z"/><path class="cls-127" d="M32.19,7.33H32A6.5,6.5,0,0,1,25.66.81h0c.11,0,6.53.09,6.53.2Z"/><path class="cls-126" d="M32.31,7.33h-.25A6.49,6.49,0,0,1,25.79.81h0c.14,0,6.52.11,6.52.25Z"/><path class="cls-125" d="M32.44,7.33h-.3A6.49,6.49,0,0,1,25.91.81h0c.17,0,6.53.13,6.53.3Z"/><path class="cls-124" d="M32.57,7.33h-.36A6.48,6.48,0,0,1,26,.81h0c.19,0,6.53.15,6.53.35Z"/><path class="cls-123" d="M32.69,7.33h-.4c-3.38,0-6.13-3.14-6.13-6.52h0c.23,0,6.53.18,6.53.4Z"/><path class="cls-122" d="M32.82,7.33h-.46C29,7.33,26.29,4.16,26.29.81h0c.25,0,6.53.2,6.53.45Z"/><path class="cls-121" d="M32.94,7.33h-.5c-3.33,0-6-3.2-6-6.52h0c.27,0,6.52.22,6.52.5Z"/><path class="cls-120" d="M33.07,7.33h-.55c-3.3,0-6-3.22-6-6.52h0c.31,0,6.53.24,6.53.55Z"/><path class="cls-119" d="M33.19,7.33h-.6c-3.27,0-5.92-3.25-5.92-6.52h0c.33,0,6.52.27,6.52.6Z"/><path class="cls-118" d="M33.32,7.33h-.65c-3.25,0-5.88-3.28-5.88-6.52h0c.36,0,6.53.29,6.53.65Z"/><path class="cls-117" d="M33.44,7.33h-.7C29.52,7.33,26.92,4,26.92.81h0c.39,0,6.52.31,6.52.7Z"/><path class="cls-116" d="M33.57,7.33h-.75C29.63,7.33,27,4,27,.81h0c.42,0,6.53.33,6.53.75Z"/><path class="cls-115" d="M33.7,7.33h-.81C29.73,7.33,27.17,4,27.17.81h0c.44,0,6.53.36,6.53.8Z"/><path class="cls-114" d="M33.82,7.33H33c-3.14,0-5.68-3.39-5.68-6.52h0c.48,0,6.53.38,6.53.85Z"/><path class="cls-113" d="M34,7.33H33c-3.1,0-5.62-3.42-5.62-6.52h0c.5,0,6.53.4,6.53.9Z"/><path class="cls-112" d="M34.07,7.33h-1C30,7.33,27.54,3.88,27.54.81h0c.53,0,6.53.42,6.53,1Z"/><path class="cls-111" d="M34.2,7.33h-1c-3,0-5.52-3.47-5.52-6.52h0c.55,0,6.53.45,6.53,1Z"/><path class="cls-110" d="M34.32,7.33h-1c-3,0-5.47-3.5-5.47-6.52h0c.58,0,6.52.47,6.52,1.05Z"/><path class="cls-109" d="M34.45,7.33H33.34c-3,0-5.42-3.53-5.42-6.52h0c.61,0,6.53.49,6.53,1.1Z"/><path class="cls-108" d="M34.57,7.33H33.42c-3,0-5.37-3.56-5.37-6.52h0c.63,0,6.52.51,6.52,1.15Z"/><path class="cls-107" d="M34.7,7.33H33.49c-2.93,0-5.32-3.58-5.32-6.52h0c.67,0,6.53.54,6.53,1.2Z"/><path class="cls-106" d="M34.82,7.33H33.57c-2.91,0-5.27-3.61-5.27-6.52h0c.69,0,6.52.56,6.52,1.25Z"/><path class="cls-105" d="M35,7.33H33.64c-2.88,0-5.22-3.64-5.22-6.52h0c.72,0,6.53.58,6.53,1.3Z"/><path class="cls-104" d="M35.08,7.33H33.72c-2.86,0-5.17-3.67-5.17-6.52h0c.75,0,6.53.6,6.53,1.35Z"/><path class="cls-103" d="M35.2,7.33H33.8c-2.83,0-5.13-3.7-5.13-6.52h0c.78,0,6.53.63,6.53,1.4Z"/><path class="cls-102" d="M35.33,7.33H33.87c-2.8,0-5.07-3.72-5.07-6.52h0c.8,0,6.53.65,6.53,1.45Z"/><path class="cls-101" d="M35.45,7.33H34c-2.78,0-5-3.75-5-6.52h0c.83,0,6.52.67,6.52,1.5Z"/><path class="cls-100" d="M35.58,7.33H34c-2.74,0-5-3.78-5-6.52h0c.86,0,6.53.69,6.53,1.55Z"/><path class="cls-99" d="M35.7,7.33H34.1c-2.72,0-4.92-3.81-4.92-6.52h0c.88,0,6.52.72,6.52,1.6Z"/><path class="cls-98" d="M35.83,7.33H34.17C31.48,7.33,29.3,3.5,29.3.81h0c.92,0,6.53.74,6.53,1.65Z"/><path class="cls-97" d="M36,7.33h-1.7c-2.66,0-4.82-3.86-4.82-6.52h0c.94,0,6.52.76,6.52,1.7Z"/><path class="cls-96" d="M36.08,7.33H34.32c-2.63,0-4.77-3.89-4.77-6.52h0c1,0,6.53.78,6.53,1.75Z"/><path class="cls-95" d="M36.21,7.33H34.4c-2.61,0-4.72-3.92-4.72-6.52h0c1,0,6.53.81,6.53,1.8Z"/><path class="cls-94" d="M36.33,7.33H34.47c-2.58,0-4.67-3.94-4.67-6.52h0c1,0,6.53.83,6.53,1.85Z"/><path class="cls-93" d="M36.46,7.33H34.55c-2.55,0-4.62-4-4.62-6.52h0c1.05,0,6.53.85,6.53,1.9Z"/><path class="cls-92" d="M36.58,7.33h-2c-2.52,0-4.56-4-4.56-6.52h0c1.08,0,6.52.87,6.52,1.95Z"/><path class="cls-91" d="M36.71,7.33h-2c-2.5,0-4.52-4-4.52-6.52h0c1.11,0,6.53.9,6.53,2Z"/><path class="cls-90" d="M36.83,7.33H34.77c-2.46,0-4.46-4.06-4.46-6.52h0c1.13,0,6.52.92,6.52,2.05Z"/><path class="cls-89" d="M37,7.33H34.85c-2.44,0-4.42-4.08-4.42-6.52h0C31.6.81,37,1.75,37,2.92Z"/><path class="cls-88" d="M37.08,7.33H34.93c-2.42,0-4.37-4.11-4.37-6.52h0c1.19,0,6.52,1,6.52,2.16Z"/><path class="cls-87" d="M37.21,7.33H35c-2.38,0-4.32-4.14-4.32-6.52h0c1.22,0,6.53,1,6.53,2.21Z"/><path class="cls-86" d="M37.34,7.33H35.08c-2.36,0-4.27-4.17-4.27-6.52h0c1.25,0,6.53,1,6.53,2.26Z"/><path class="cls-85" d="M37.46,7.33H35.15c-2.33,0-4.22-4.19-4.22-6.52h0c1.28,0,6.53,1,6.53,2.31Z"/><path class="cls-84" d="M37.59,7.33H35.23c-2.31,0-4.17-4.22-4.17-6.52h0c1.3,0,6.53,1.05,6.53,2.36Z"/><path class="cls-83" d="M37.71,7.33H35.3C33,7.33,31.18,3.08,31.18.81h0c1.34,0,6.53,1.08,6.53,2.41Z"/><path class="cls-82" d="M37.84,7.33H35.38c-2.25,0-4.07-4.28-4.07-6.52h0c1.36,0,6.53,1.1,6.53,2.46Z"/><path class="cls-81" d="M38,7.33H35.45c-2.22,0-4-4.31-4-6.52h0C32.82.81,38,1.93,38,3.32Z"/><path class="cls-80" d="M38.09,7.33H35.53c-2.19,0-4-4.33-4-6.52h0C33,.81,38.09,2,38.09,3.37Z"/><path class="cls-79" d="M38.21,7.33H35.6C33.44,7.33,31.69,3,31.69.81h0c1.44,0,6.52,1.17,6.52,2.61Z"/><path class="cls-78" d="M38.34,7.33H35.68c-2.14,0-3.87-4.39-3.87-6.52h0c1.47,0,6.53,1.19,6.53,2.66Z"/><path class="cls-77" d="M38.46,7.33H35.75c-2.1,0-3.81-4.42-3.81-6.52h0c1.5,0,6.52,1.21,6.52,2.71Z"/><path class="cls-76" d="M38.59,7.33H35.83c-2.08,0-3.77-4.44-3.77-6.52h0c1.53,0,6.53,1.23,6.53,2.76Z"/><path class="cls-75" d="M38.72,7.33H35.9c-2,0-3.71-4.47-3.71-6.52h0c1.55,0,6.53,1.26,6.53,2.81Z"/><path class="cls-74" d="M38.84,7.33H36c-2,0-3.67-4.5-3.67-6.52h0c1.58,0,6.53,1.28,6.53,2.86Z"/><path class="cls-73" d="M39,7.33H36.05c-2,0-3.61-4.53-3.61-6.52h0C34.05.81,39,2.11,39,3.72Z"/><path class="cls-72" d="M39.09,7.33h-3c-2,0-3.56-4.55-3.56-6.52h0c1.63,0,6.52,1.32,6.52,3Z"/><path class="cls-71" d="M39.22,7.33h-3c-2,0-3.52-4.58-3.52-6.52h0c1.66,0,6.53,1.35,6.53,3Z"/><path class="cls-70" d="M39.34,7.33H36.28c-1.91,0-3.46-4.61-3.46-6.52h0c1.69,0,6.52,1.37,6.52,3.06Z"/><path class="cls-69" d="M39.47,7.33H36.36c-1.89,0-3.42-4.64-3.42-6.52h0c1.72,0,6.53,1.39,6.53,3.11Z"/><path class="cls-68" d="M39.59,7.33H36.43c-1.86,0-3.36-4.67-3.36-6.52h0c1.74,0,6.52,1.41,6.52,3.16Z"/><path class="cls-67" d="M39.72,7.33H36.51c-1.83,0-3.32-4.69-3.32-6.52h0C35,.81,39.72,2.25,39.72,4Z"/><path class="cls-66" d="M39.85,7.33H36.58c-1.8,0-3.26-4.72-3.26-6.52h0c1.8,0,6.53,1.46,6.53,3.26Z"/><path class="cls-65" d="M40,7.33H36.66c-1.78,0-3.22-4.75-3.22-6.52h0C35.27.81,40,2.29,40,4.12Z"/><path class="cls-64" d="M40.1,7.33H36.73C35,7.33,33.57,2.55,33.57.81h0c1.86,0,6.53,1.5,6.53,3.36Z"/><path class="cls-63" d="M40.22,7.33H36.81c-1.72,0-3.11-4.8-3.11-6.52h0c1.88,0,6.52,1.52,6.52,3.41Z"/><path class="cls-62" d="M40.35,7.33H36.88c-1.69,0-3.06-4.83-3.06-6.52h0c1.91,0,6.53,1.55,6.53,3.46Z"/><path class="cls-61" d="M40.47,7.33H37c-1.67,0-3-4.86-3-6.52h0c1.94,0,6.52,1.57,6.52,3.51Z"/><path class="cls-60" d="M40.6,7.33H37c-1.63,0-3-4.89-3-6.52h0c2,0,6.53,1.59,6.53,3.56Z"/><path class="cls-59" d="M40.72,7.33H37.11C35.5,7.33,34.2,2.41,34.2.81h0c2,0,6.52,1.61,6.52,3.61Z"/><path class="cls-58" d="M40.85,7.33H37.18c-1.58,0-2.86-4.94-2.86-6.52h0c2,0,6.53,1.64,6.53,3.66Z"/><path class="cls-57" d="M41,7.33H37.26c-1.55,0-2.81-5-2.81-6.52h0C36.5.81,41,2.47,41,4.52Z"/><path class="cls-56" d="M41.1,7.33H37.34c-1.53,0-2.77-5-2.77-6.52h0c2.08,0,6.53,1.68,6.53,3.76Z"/><path class="cls-55" d="M41.23,7.33H37.41c-1.5,0-2.71-5-2.71-6.52h0c2.11,0,6.53,1.7,6.53,3.81Z"/><path class="cls-54" d="M41.35,7.33H37.49C36,7.33,34.82,2.28,34.82.81h0c2.14,0,6.53,1.73,6.53,3.86Z"/><path class="cls-53" d="M41.48,7.33H37.56C36.12,7.33,35,2.25,35,.81h0c2.16,0,6.53,1.75,6.53,3.91Z"/><path class="cls-52" d="M41.6,7.33h-4c-1.42,0-2.56-5.11-2.56-6.52h0c2.19,0,6.52,1.77,6.52,4Z"/><path class="cls-51" d="M41.73,7.33h-4c-1.38,0-2.51-5.14-2.51-6.52h0c2.22,0,6.53,1.79,6.53,4Z"/><path class="cls-50" d="M41.85,7.33H37.79c-1.36,0-2.46-5.16-2.46-6.52h0c2.24,0,6.52,1.82,6.52,4.06Z"/><path class="cls-49" d="M42,7.33H37.86c-1.33,0-2.41-5.19-2.41-6.52h0C37.73.81,42,2.65,42,4.92Z"/><path class="cls-48" d="M42.1,7.33H37.94c-1.31,0-2.36-5.22-2.36-6.52h0C37.88.81,42.1,2.67,42.1,5Z"/><path class="cls-47" d="M42.23,7.33H38c-1.27,0-2.31-5.25-2.31-6.52h0C38,.81,42.23,2.69,42.23,5Z"/><path class="cls-46" d="M42.36,7.33H38.09c-1.25,0-2.26-5.28-2.26-6.52h0c2.36,0,6.53,1.91,6.53,4.26Z"/><path class="cls-45" d="M42.48,7.33H38.16C36.94,7.33,36,2,36,.81h0c2.39,0,6.53,1.93,6.53,4.31Z"/><path class="cls-44" d="M42.61,7.33H38.24C37.05,7.33,36.08,2,36.08.81h0c2.41,0,6.53,1.95,6.53,4.36Z"/><path class="cls-43" d="M42.73,7.33H38.31c-1.16,0-2.1-5.36-2.1-6.52h0c2.44,0,6.52,2,6.52,4.41Z"/><path class="cls-42" d="M42.86,7.33H38.39c-1.14,0-2.06-5.39-2.06-6.52h0c2.47,0,6.53,2,6.53,4.46Z"/><path class="cls-41" d="M43,7.33H38.46c-1.1,0-2-5.41-2-6.52h0C39,.81,43,2.83,43,5.33Z"/><path class="cls-40" d="M43.11,7.33H38.54c-1.08,0-2-5.44-2-6.52h0c2.53,0,6.53,2,6.53,4.57Z"/><path class="cls-39" d="M43.23,7.33H38.62c-1.06,0-1.91-5.47-1.91-6.52h0c2.55,0,6.52,2.06,6.52,4.62Z"/><path class="cls-38" d="M43.36,7.33H38.69c-1,0-1.86-5.5-1.86-6.52h0c2.58,0,6.53,2.09,6.53,4.67Z"/><path class="cls-37" d="M43.49,7.33H38.77C37.77,7.33,37,1.8,37,.81h0c2.6,0,6.53,2.11,6.53,4.72Z"/><path class="cls-36" d="M43.61,7.33H38.84c-1,0-1.76-5.55-1.76-6.52h0c2.64,0,6.53,2.13,6.53,4.77Z"/><path class="cls-35" d="M43.74,7.33H38.92c-1,0-1.71-5.58-1.71-6.52h0c2.66,0,6.53,2.15,6.53,4.82Z"/><path class="cls-34" d="M43.86,7.33H39c-.91,0-1.65-5.61-1.65-6.52h0C40,.81,43.86,3,43.86,5.68Z"/><path class="cls-33" d="M44,7.33H39.07c-.89,0-1.61-5.64-1.61-6.52h0C40.18.81,44,3,44,5.73Z"/><path class="cls-32" d="M44.11,7.33h-5c-.86,0-1.55-5.66-1.55-6.52h0c2.74,0,6.52,2.22,6.52,5Z"/><path class="cls-31" d="M44.24,7.33h-5c-.83,0-1.51-5.69-1.51-6.52h0c2.77,0,6.53,2.24,6.53,5Z"/><path class="cls-30" d="M44.36,7.33H39.29c-.8,0-1.45-5.72-1.45-6.52h0c2.8,0,6.52,2.27,6.52,5.07Z"/><path class="cls-29" d="M44.49,7.33H39.37C38.59,7.33,38,1.58,38,.81h0c2.83,0,6.53,2.29,6.53,5.12Z"/><path class="cls-28" d="M44.62,7.33H39.44c-.74,0-1.35-5.77-1.35-6.52h0c2.85,0,6.53,2.31,6.53,5.17Z"/><path class="cls-27" d="M44.74,7.33H39.52c-.72,0-1.31-5.8-1.31-6.52h0C41.1.81,44.74,3.14,44.74,6Z"/><path class="cls-26" d="M44.87,7.33H39.59c-.69,0-1.25-5.83-1.25-6.52h0c2.91,0,6.53,2.36,6.53,5.27Z"/><path class="cls-25" d="M45,7.33H39.67c-.67,0-1.21-5.86-1.21-6.52h0C41.4.81,45,3.19,45,6.13Z"/><path class="cls-24" d="M45.12,7.33H39.74c-.63,0-1.15-5.89-1.15-6.52h0c3,0,6.53,2.4,6.53,5.37Z"/><path class="cls-23" d="M45.24,7.33H39.82c-.61,0-1.1-5.91-1.1-6.52h0c3,0,6.52,2.42,6.52,5.42Z"/><path class="cls-22" d="M45.37,7.33H39.9c-.59,0-1.06-5.94-1.06-6.52h0c3,0,6.53,2.45,6.53,5.47Z"/><path class="cls-21" d="M45.49,7.33H40c-.55,0-1-6-1-6.52h0c3.05,0,6.52,2.47,6.52,5.52Z"/><path class="cls-20" d="M45.62,7.33H40.05c-.53,0-1-6-1-6.52h0c3.08,0,6.53,2.49,6.53,5.57Z"/><path class="cls-19" d="M45.74,7.33H40.12c-.5,0-.9-6-.9-6.52h0c3.1,0,6.52,2.51,6.52,5.62Z"/><path class="cls-18" d="M45.87,7.33H40.2c-.47,0-.86-6-.86-6.52h0c3.14,0,6.53,2.54,6.53,5.67Z"/><path class="cls-17" d="M46,7.33H40.27c-.44,0-.8-6.08-.8-6.52h0C42.63.81,46,3.37,46,6.53Z"/><path class="cls-16" d="M46.12,7.33H40.35c-.42,0-.76-6.11-.76-6.52h0c3.19,0,6.53,2.58,6.53,5.77Z"/><path class="cls-15" d="M46.25,7.33H40.42c-.39,0-.7-6.14-.7-6.52h0c3.22,0,6.53,2.6,6.53,5.82Z"/><path class="cls-14" d="M46.37,7.33H40.5c-.36,0-.65-6.16-.65-6.52h0c3.24,0,6.52,2.63,6.52,5.87Z"/><path class="cls-13" d="M46.5,7.33H40.57c-.33,0-.6-6.19-.6-6.52h0c3.27,0,6.53,2.65,6.53,5.92Z"/><path class="cls-12" d="M46.62,7.33h-6c-.31,0-.55-6.22-.55-6.52h0c3.3,0,6.52,2.67,6.52,6Z"/><path class="cls-11" d="M46.75,7.33h-6c-.27,0-.5-6.25-.5-6.52h0c3.33,0,6.53,2.69,6.53,6Z"/><path class="cls-10" d="M46.87,7.33H40.8c-.25,0-.45-6.27-.45-6.52h0c3.35,0,6.52,2.72,6.52,6.07Z"/><path class="cls-9" d="M47,7.33H40.87c-.22,0-.4-6.3-.4-6.52h0C43.86.81,47,3.55,47,6.93Z"/><path class="cls-8" d="M47.13,7.33H41c-.19,0-.35-6.33-.35-6.52h0A6.48,6.48,0,0,1,47.13,7Z"/><path class="cls-7" d="M47.25,7.33H41c-.17,0-.31-6.36-.31-6.52h0A6.49,6.49,0,0,1,47.25,7Z"/><path class="cls-6" d="M47.38,7.33H41.1C41,7.33,40.85,1,40.85.81h0a6.49,6.49,0,0,1,6.53,6.27Z"/><path class="cls-5" d="M47.5,7.33H41.18c-.12,0-.2-6.41-.2-6.52h0A6.49,6.49,0,0,1,47.5,7.13Z"/><path class="cls-4" d="M47.63,7.33H41.25c-.08,0-.15-6.44-.15-6.52h0a6.51,6.51,0,0,1,6.53,6.37Z"/><path class="cls-3" d="M47.75,7.33H41.33c-.06,0-.1-6.47-.1-6.52h0a6.5,6.5,0,0,1,6.52,6.42Z"/><path class="cls-2" d="M47.88,7.33H41.4s0-6.5,0-6.52h0a6.52,6.52,0,0,1,6.53,6.47Z"/><path class="cls-1" d="M48,7.33H41.48V.81h0A6.52,6.52,0,0,1,48,7.33Z"/><rect class="cls-131" x="16.32" y="32.63" width="6.53" height="6.53"/><polygon class="cls-130" points="16.24 32.5 19.5 32.5 22.76 32.5 22.76 35.76 22.76 37.4 22.76 39.03 19.5 39.03 16.24 39.03 16.24 37.4 16.24 35.77 16.24 32.5"/><polygon class="cls-129" points="16.16 32.37 19.42 32.37 22.68 32.37 22.68 35.63 22.68 37.26 22.68 38.89 19.42 38.89 16.16 38.89 16.16 37.27 16.16 35.64 16.16 32.37"/><polygon class="cls-128" points="16.08 32.23 19.34 32.23 22.6 32.23 22.6 35.5 22.6 37.13 22.6 38.76 19.34 38.76 16.08 38.76 16.08 37.13 16.08 35.5 16.08 32.23"/><polygon class="cls-127" points="16 32.1 19.26 32.1 22.52 32.1 22.52 35.36 22.52 36.99 22.52 38.63 19.26 38.63 16 38.63 16 37 16 35.37 16 32.1"/><polygon class="cls-126" points="15.92 31.97 19.18 31.97 22.44 31.97 22.44 35.23 22.44 36.86 22.44 38.49 19.18 38.49 15.92 38.49 15.92 36.87 15.92 35.23 15.92 31.97"/><polygon class="cls-125" points="15.84 31.83 19.1 31.83 22.36 31.83 22.36 35.09 22.36 36.73 22.36 38.36 19.1 38.36 15.84 38.36 15.84 36.73 15.84 35.1 15.84 31.83"/><polygon class="cls-124" points="15.76 31.7 19.02 31.7 22.28 31.7 22.28 34.96 22.28 36.59 22.28 38.23 19.02 38.23 15.76 38.23 15.76 36.6 15.76 34.97 15.76 31.7"/><polygon class="cls-123" points="15.68 31.56 18.94 31.56 22.2 31.56 22.2 34.83 22.2 36.46 22.2 38.09 18.94 38.09 15.68 38.09 15.68 36.46 15.68 34.83 15.68 31.56"/><polygon class="cls-122" points="15.6 31.43 18.86 31.43 22.12 31.43 22.12 34.69 22.12 36.33 22.12 37.96 18.86 37.96 15.6 37.96 15.6 36.33 15.6 34.7 15.6 31.43"/><polygon class="cls-121" points="15.52 31.3 18.78 31.3 22.04 31.3 22.04 34.56 22.04 36.19 22.04 37.82 18.78 37.82 15.52 37.82 15.52 36.2 15.52 34.56 15.52 31.3"/><polygon class="cls-120" points="15.43 31.16 18.7 31.16 21.96 31.16 21.96 34.43 21.96 36.06 21.96 37.69 18.7 37.69 15.43 37.69 15.43 36.06 15.43 34.43 15.43 31.16"/><polygon class="cls-119" points="15.35 31.03 18.62 31.03 21.88 31.03 21.88 34.29 21.88 35.92 21.88 37.56 18.62 37.56 15.35 37.56 15.35 35.93 15.35 34.3 15.35 31.03"/><polygon class="cls-132" points="15.27 30.9 18.54 30.9 21.8 30.9 21.8 34.16 21.8 35.79 21.8 37.42 18.54 37.42 15.27 37.42 15.27 35.8 15.27 34.16 15.27 30.9"/><polygon class="cls-117" points="15.19 30.76 18.46 30.76 21.72 30.76 21.72 34.02 21.72 35.66 21.72 37.29 18.46 37.29 15.19 37.29 15.19 35.66 15.19 34.03 15.19 30.76"/><polygon class="cls-116" points="15.11 30.63 18.38 30.63 21.64 30.63 21.64 33.89 21.64 35.52 21.64 37.16 18.38 37.16 15.11 37.16 15.11 35.53 15.11 33.9 15.11 30.63"/><polygon class="cls-115" points="15.03 30.49 18.3 30.49 21.56 30.49 21.56 33.76 21.56 35.39 21.56 37.02 18.3 37.02 15.03 37.02 15.03 35.39 15.03 33.76 15.03 30.49"/><polygon class="cls-114" points="14.95 30.36 18.22 30.36 21.48 30.36 21.48 33.62 21.48 35.26 21.48 36.89 18.22 36.89 14.95 36.89 14.95 35.26 14.95 33.63 14.95 30.36"/><polygon class="cls-113" points="14.87 30.23 18.14 30.23 21.4 30.23 21.4 33.49 21.4 35.12 21.4 36.75 18.14 36.75 14.87 36.75 14.87 35.13 14.87 33.49 14.87 30.23"/><polygon class="cls-112" points="14.79 30.09 18.06 30.09 21.32 30.09 21.32 33.36 21.32 34.99 21.32 36.62 18.06 36.62 14.79 36.62 14.79 34.99 14.79 33.36 14.79 30.09"/><polygon class="cls-111" points="14.71 29.96 17.98 29.96 21.24 29.96 21.24 33.22 21.24 34.85 21.24 36.49 17.98 36.49 14.71 36.49 14.71 34.86 14.71 33.23 14.71 29.96"/><polygon class="cls-110" points="14.63 29.83 17.89 29.83 21.16 29.83 21.16 33.09 21.16 34.72 21.16 36.35 17.89 36.35 14.63 36.35 14.63 34.72 14.63 33.09 14.63 29.83"/><polygon class="cls-109" points="14.55 29.69 17.82 29.69 21.08 29.69 21.08 32.95 21.08 34.59 21.08 36.22 17.82 36.22 14.55 36.22 14.55 34.59 14.55 32.96 14.55 29.69"/><polygon class="cls-108" points="14.47 29.56 17.73 29.56 21 29.56 21 32.82 21 34.45 21 36.09 17.73 36.09 14.47 36.09 14.47 34.46 14.47 32.83 14.47 29.56"/><polygon class="cls-107" points="14.39 29.42 17.66 29.42 20.92 29.42 20.92 32.69 20.92 34.32 20.92 35.95 17.66 35.95 14.39 35.95 14.39 34.32 14.39 32.69 14.39 29.42"/><polygon class="cls-133" points="14.31 29.29 17.57 29.29 20.84 29.29 20.84 32.55 20.84 34.19 20.84 35.82 17.57 35.82 14.31 35.82 14.31 34.19 14.31 32.56 14.31 29.29"/><polygon class="cls-105" points="14.23 29.16 17.49 29.16 20.76 29.16 20.76 32.42 20.76 34.05 20.76 35.68 17.49 35.68 14.23 35.68 14.23 34.05 14.23 32.42 14.23 29.16"/><polygon class="cls-104" points="14.15 29.02 17.41 29.02 20.68 29.02 20.68 32.29 20.68 33.92 20.68 35.55 17.41 35.55 14.15 35.55 14.15 33.92 14.15 32.29 14.15 29.02"/><polygon class="cls-103" points="14.07 28.89 17.33 28.89 20.6 28.89 20.6 32.15 20.6 33.78 20.6 35.42 17.33 35.42 14.07 35.42 14.07 33.79 14.07 32.16 14.07 28.89"/><polygon class="cls-102" points="13.99 28.76 17.25 28.76 20.52 28.76 20.52 32.02 20.52 33.65 20.52 35.28 17.25 35.28 13.99 35.28 13.99 33.65 13.99 32.02 13.99 28.76"/><polygon class="cls-101" points="13.91 28.62 17.17 28.62 20.44 28.62 20.44 31.89 20.44 33.52 20.44 35.15 17.17 35.15 13.91 35.15 13.91 33.52 13.91 31.89 13.91 28.62"/><polygon class="cls-100" points="13.83 28.49 17.09 28.49 20.36 28.49 20.36 31.75 20.36 33.38 20.36 35.02 17.09 35.02 13.83 35.02 13.83 33.39 13.83 31.76 13.83 28.49"/><polygon class="cls-134" points="13.75 28.35 17.01 28.35 20.28 28.35 20.28 31.62 20.28 33.25 20.28 34.88 17.01 34.88 13.75 34.88 13.75 33.25 13.75 31.62 13.75 28.35"/><polygon class="cls-98" points="13.67 28.22 16.93 28.22 20.2 28.22 20.2 31.48 20.2 33.12 20.2 34.75 16.93 34.75 13.67 34.75 13.67 33.12 13.67 31.49 13.67 28.22"/><polygon class="cls-97" points="13.59 28.09 16.85 28.09 20.12 28.09 20.12 31.35 20.12 32.98 20.12 34.61 16.85 34.61 13.59 34.61 13.59 32.98 13.59 31.35 13.59 28.09"/><polygon class="cls-96" points="13.51 27.95 16.77 27.95 20.04 27.95 20.04 31.22 20.04 32.85 20.04 34.48 16.77 34.48 13.51 34.48 13.51 32.85 13.51 31.22 13.51 27.95"/><polygon class="cls-95" points="13.43 27.82 16.69 27.82 19.95 27.82 19.95 31.08 19.95 32.71 19.95 34.35 16.69 34.35 13.43 34.35 13.43 32.72 13.43 31.09 13.43 27.82"/><polygon class="cls-135" points="13.35 27.69 16.61 27.69 19.88 27.69 19.88 30.95 19.88 32.58 19.88 34.21 16.61 34.21 13.35 34.21 13.35 32.58 13.35 30.95 13.35 27.69"/><polygon class="cls-93" points="13.27 27.55 16.53 27.55 19.8 27.55 19.8 30.82 19.8 32.45 19.8 34.08 16.53 34.08 13.27 34.08 13.27 32.45 13.27 30.82 13.27 27.55"/><polygon class="cls-136" points="13.19 27.42 16.45 27.42 19.71 27.42 19.71 30.68 19.71 32.31 19.71 33.95 16.45 33.95 13.19 33.95 13.19 32.32 13.19 30.68 13.19 27.42"/><polygon class="cls-91" points="13.11 27.28 16.37 27.28 19.63 27.28 19.63 30.55 19.63 32.18 19.63 33.81 16.37 33.81 13.11 33.81 13.11 32.18 13.11 30.55 13.11 27.28"/><polygon class="cls-90" points="13.03 27.15 16.29 27.15 19.55 27.15 19.55 30.41 19.55 32.05 19.55 33.68 16.29 33.68 13.03 33.68 13.03 32.05 13.03 30.42 13.03 27.15"/><polygon class="cls-137" points="12.95 27.02 16.21 27.02 19.47 27.02 19.47 30.28 19.47 31.91 19.47 33.54 16.21 33.54 12.95 33.54 12.95 31.91 12.95 30.28 12.95 27.02"/><polygon class="cls-88" points="12.87 26.88 16.13 26.88 19.39 26.88 19.39 30.15 19.39 31.78 19.39 33.41 16.13 33.41 12.87 33.41 12.87 31.78 12.87 30.15 12.87 26.88"/><polygon class="cls-138" points="12.79 26.75 16.05 26.75 19.31 26.75 19.31 30.01 19.31 31.64 19.31 33.28 16.05 33.28 12.79 33.28 12.79 31.65 12.79 30.02 12.79 26.75"/><polygon class="cls-86" points="12.71 26.62 15.97 26.62 19.23 26.62 19.23 29.88 19.23 31.51 19.23 33.14 15.97 33.14 12.71 33.14 12.71 31.51 12.71 29.88 12.71 26.62"/><polygon class="cls-85" points="12.63 26.48 15.89 26.48 19.15 26.48 19.15 29.75 19.15 31.38 19.15 33.01 15.89 33.01 12.63 33.01 12.63 31.38 12.63 29.75 12.63 26.48"/><polygon class="cls-84" points="12.54 26.35 15.81 26.35 19.07 26.35 19.07 29.61 19.07 31.24 19.07 32.88 15.81 32.88 12.54 32.88 12.54 31.25 12.54 29.61 12.54 26.35"/><polygon class="cls-83" points="12.46 26.21 15.73 26.21 18.99 26.21 18.99 29.48 18.99 31.11 18.99 32.74 15.73 32.74 12.46 32.74 12.46 31.11 12.46 29.48 12.46 26.21"/><polygon class="cls-139" points="12.38 26.08 15.65 26.08 18.91 26.08 18.91 29.34 18.91 30.98 18.91 32.61 15.65 32.61 12.38 32.61 12.38 30.98 12.38 29.35 12.38 26.08"/><polygon class="cls-81" points="12.3 25.95 15.57 25.95 18.83 25.95 18.83 29.21 18.83 30.84 18.83 32.47 15.57 32.47 12.3 32.47 12.3 30.84 12.3 29.21 12.3 25.95"/><polygon class="cls-140" points="12.22 25.81 15.49 25.81 18.75 25.81 18.75 29.08 18.75 30.71 18.75 32.34 15.49 32.34 12.22 32.34 12.22 30.71 12.22 29.08 12.22 25.81"/><polygon class="cls-79" points="12.14 25.68 15.41 25.68 18.67 25.68 18.67 28.94 18.67 30.57 18.67 32.21 15.41 32.21 12.14 32.21 12.14 30.58 12.14 28.95 12.14 25.68"/><polygon class="cls-78" points="12.06 25.55 15.33 25.55 18.59 25.55 18.59 28.81 18.59 30.44 18.59 32.07 15.33 32.07 12.06 32.07 12.06 30.44 12.06 28.81 12.06 25.55"/><polygon class="cls-77" points="11.98 25.41 15.25 25.41 18.51 25.41 18.51 28.68 18.51 30.31 18.51 31.94 15.25 31.94 11.98 31.94 11.98 30.31 11.98 28.68 11.98 25.41"/><polygon class="cls-76" points="11.9 25.28 15.17 25.28 18.43 25.28 18.43 28.54 18.43 30.17 18.43 31.8 15.17 31.8 11.9 31.8 11.9 30.18 11.9 28.55 11.9 25.28"/><polygon class="cls-141" points="11.82 25.14 15.09 25.14 18.35 25.14 18.35 28.41 18.35 30.04 18.35 31.67 15.09 31.67 11.82 31.67 11.82 30.04 11.82 28.41 11.82 25.14"/><polygon class="cls-74" points="11.74 25.01 15.01 25.01 18.27 25.01 18.27 28.27 18.27 29.91 18.27 31.54 15.01 31.54 11.74 31.54 11.74 29.91 11.74 28.28 11.74 25.01"/><polygon class="cls-142" points="11.66 24.88 14.93 24.88 18.19 24.88 18.19 28.14 18.19 29.77 18.19 31.4 14.93 31.4 11.66 31.4 11.66 29.77 11.66 28.14 11.66 24.88"/><polygon class="cls-72" points="11.58 24.74 14.85 24.74 18.11 24.74 18.11 28.01 18.11 29.64 18.11 31.27 14.85 31.27 11.58 31.27 11.58 29.64 11.58 28.01 11.58 24.74"/><polygon class="cls-71" points="11.5 24.61 14.77 24.61 18.03 24.61 18.03 27.87 18.03 29.5 18.03 31.14 14.77 31.14 11.5 31.14 11.5 29.51 11.5 27.88 11.5 24.61"/><polygon class="cls-70" points="11.42 24.48 14.69 24.48 17.95 24.48 17.95 27.74 17.95 29.37 17.95 31 14.69 31 11.42 31 11.42 29.37 11.42 27.74 11.42 24.48"/><polygon class="cls-70" points="11.34 24.34 14.61 24.34 17.87 24.34 17.87 27.61 17.87 29.24 17.87 30.87 14.61 30.87 11.34 30.87 11.34 29.24 11.34 27.61 11.34 24.34"/><polygon class="cls-69" points="11.26 24.21 14.53 24.21 17.79 24.21 17.79 27.47 17.79 29.1 17.79 30.73 14.53 30.73 11.26 30.73 11.26 29.11 11.26 27.47 11.26 24.21"/><polygon class="cls-68" points="11.18 24.07 14.45 24.07 17.71 24.07 17.71 27.34 17.71 28.97 17.71 30.6 14.45 30.6 11.18 30.6 11.18 28.97 11.18 27.34 11.18 24.07"/><polygon class="cls-143" points="11.1 23.94 14.36 23.94 17.63 23.94 17.63 27.2 17.63 28.84 17.63 30.47 14.36 30.47 11.1 30.47 11.1 28.84 11.1 27.21 11.1 23.94"/><polygon class="cls-66" points="11.02 23.81 14.28 23.81 17.55 23.81 17.55 27.07 17.55 28.7 17.55 30.33 14.28 30.33 11.02 30.33 11.02 28.7 11.02 27.07 11.02 23.81"/><polygon class="cls-65" points="10.94 23.67 14.2 23.67 17.47 23.67 17.47 26.94 17.47 28.57 17.47 30.2 14.2 30.2 10.94 30.2 10.94 28.57 10.94 26.94 10.94 23.67"/><polygon class="cls-64" points="10.86 23.54 14.12 23.54 17.39 23.54 17.39 26.8 17.39 28.43 17.39 30.07 14.12 30.07 10.86 30.07 10.86 28.44 10.86 26.8 10.86 23.54"/><polygon class="cls-63" points="10.78 23.41 14.04 23.41 17.31 23.41 17.31 26.67 17.31 28.3 17.31 29.93 14.04 29.93 10.78 29.93 10.78 28.3 10.78 26.67 10.78 23.41"/><polygon class="cls-62" points="10.7 23.27 13.96 23.27 17.23 23.27 17.23 26.54 17.23 28.17 17.23 29.8 13.96 29.8 10.7 29.8 10.7 28.17 10.7 26.54 10.7 23.27"/><polygon class="cls-61" points="10.62 23.14 13.88 23.14 17.15 23.14 17.15 26.4 17.15 28.03 17.15 29.66 13.88 29.66 10.62 29.66 10.62 28.04 10.62 26.4 10.62 23.14"/><polygon class="cls-60" points="10.54 23 13.8 23 17.07 23 17.07 26.27 17.07 27.9 17.07 29.53 13.8 29.53 10.54 29.53 10.54 27.9 10.54 26.27 10.54 23"/><polygon class="cls-144" points="10.46 22.87 13.72 22.87 16.99 22.87 16.99 26.13 16.99 27.77 16.99 29.4 13.72 29.4 10.46 29.4 10.46 27.77 10.46 26.14 10.46 22.87"/><polygon class="cls-58" points="10.38 22.74 13.64 22.74 16.91 22.74 16.91 26 16.91 27.63 16.91 29.26 13.64 29.26 10.38 29.26 10.38 27.63 10.38 26 10.38 22.74"/><polygon class="cls-57" points="10.3 22.6 13.56 22.6 16.82 22.6 16.82 25.87 16.82 27.5 16.82 29.13 13.56 29.13 10.3 29.13 10.3 27.5 10.3 25.87 10.3 22.6"/><polygon class="cls-56" points="10.22 22.47 13.48 22.47 16.75 22.47 16.75 25.73 16.75 27.36 16.75 29 13.48 29 10.22 29 10.22 27.37 10.22 25.73 10.22 22.47"/><polygon class="cls-55" points="10.14 22.34 13.4 22.34 16.66 22.34 16.66 25.6 16.66 27.23 16.66 28.86 13.4 28.86 10.14 28.86 10.14 27.23 10.14 25.6 10.14 22.34"/><polygon class="cls-54" points="10.06 22.2 13.32 22.2 16.59 22.2 16.59 25.46 16.59 27.1 16.59 28.73 13.32 28.73 10.06 28.73 10.06 27.1 10.06 25.47 10.06 22.2"/><polygon class="cls-53" points="9.98 22.07 13.24 22.07 16.5 22.07 16.5 25.33 16.5 26.96 16.5 28.59 13.24 28.59 9.98 28.59 9.98 26.96 9.98 25.33 9.98 22.07"/><polygon class="cls-52" points="9.9 21.93 13.16 21.93 16.42 21.93 16.42 25.2 16.42 26.83 16.42 28.46 13.16 28.46 9.9 28.46 9.9 26.83 9.9 25.2 9.9 21.93"/><polygon class="cls-145" points="9.82 21.8 13.08 21.8 16.34 21.8 16.34 25.06 16.34 26.7 16.34 28.33 13.08 28.33 9.82 28.33 9.82 26.7 9.82 25.07 9.82 21.8"/><polygon class="cls-50" points="9.74 21.67 13 21.67 16.26 21.67 16.26 24.93 16.26 26.56 16.26 28.19 13 28.19 9.74 28.19 9.74 26.56 9.74 24.93 9.74 21.67"/><polygon class="cls-49" points="9.66 21.53 12.92 21.53 16.18 21.53 16.18 24.8 16.18 26.43 16.18 28.06 12.92 28.06 9.66 28.06 9.66 26.43 9.66 24.8 9.66 21.53"/><polygon class="cls-48" points="9.58 21.4 12.84 21.4 16.1 21.4 16.1 24.66 16.1 26.3 16.1 27.93 12.84 27.93 9.58 27.93 9.58 26.3 9.58 24.66 9.58 21.4"/><polygon class="cls-47" points="9.5 21.27 12.76 21.27 16.02 21.27 16.02 24.53 16.02 26.16 16.02 27.79 12.76 27.79 9.5 27.79 9.5 26.16 9.5 24.53 9.5 21.27"/><polygon class="cls-46" points="9.42 21.13 12.68 21.13 15.94 21.13 15.94 24.39 15.94 26.03 15.94 27.66 12.68 27.66 9.42 27.66 9.42 26.03 9.42 24.4 9.42 21.13"/><polygon class="cls-45" points="9.34 21 12.6 21 15.86 21 15.86 24.26 15.86 25.89 15.86 27.52 12.6 27.52 9.34 27.52 9.34 25.89 9.34 24.26 9.34 21"/><polygon class="cls-146" points="9.26 20.86 12.52 20.86 15.78 20.86 15.78 24.13 15.78 25.76 15.78 27.39 12.52 27.39 9.26 27.39 9.26 25.76 9.26 24.13 9.26 20.86"/><polygon class="cls-43" points="9.18 20.73 12.44 20.73 15.7 20.73 15.7 23.99 15.7 25.63 15.7 27.26 12.44 27.26 9.18 27.26 9.18 25.63 9.18 24 9.18 20.73"/><polygon class="cls-42" points="9.1 20.6 12.36 20.6 15.62 20.6 15.62 23.86 15.62 25.49 15.62 27.12 12.36 27.12 9.1 27.12 9.1 25.49 9.1 23.86 9.1 20.6"/><polygon class="cls-41" points="9.02 20.46 12.28 20.46 15.54 20.46 15.54 23.73 15.54 25.36 15.54 26.99 12.28 26.99 9.02 26.99 9.02 25.36 9.02 23.73 9.02 20.46"/><polygon class="cls-147" points="8.93 20.33 12.2 20.33 15.46 20.33 15.46 23.59 15.46 25.23 15.46 26.86 12.2 26.86 8.93 26.86 8.93 25.23 8.93 23.59 8.93 20.33"/><polygon class="cls-39" points="8.85 20.2 12.12 20.2 15.38 20.2 15.38 23.46 15.38 25.09 15.38 26.72 12.12 26.72 8.85 26.72 8.85 25.09 8.85 23.46 8.85 20.2"/><polygon class="cls-38" points="8.77 20.06 12.04 20.06 15.3 20.06 15.3 23.32 15.3 24.96 15.3 26.59 12.04 26.59 8.77 26.59 8.77 24.96 8.77 23.33 8.77 20.06"/><polygon class="cls-37" points="8.69 19.93 11.96 19.93 15.22 19.93 15.22 23.19 15.22 24.82 15.22 26.45 11.96 26.45 8.69 26.45 8.69 24.82 8.69 23.19 8.69 19.93"/><polygon class="cls-148" points="8.61 19.8 11.88 19.8 15.14 19.8 15.14 23.06 15.14 24.69 15.14 26.32 11.88 26.32 8.61 26.32 8.61 24.69 8.61 23.06 8.61 19.8"/><polygon class="cls-35" points="8.53 19.66 11.8 19.66 15.06 19.66 15.06 22.92 15.06 24.56 15.06 26.19 11.8 26.19 8.53 26.19 8.53 24.56 8.53 22.93 8.53 19.66"/><polygon class="cls-34" points="8.45 19.53 11.72 19.53 14.98 19.53 14.98 22.79 14.98 24.42 14.98 26.05 11.72 26.05 8.45 26.05 8.45 24.42 8.45 22.79 8.45 19.53"/><polygon class="cls-33" points="8.37 19.39 11.64 19.39 14.9 19.39 14.9 22.66 14.9 24.29 14.9 25.92 11.64 25.92 8.37 25.92 8.37 24.29 8.37 22.66 8.37 19.39"/><polygon class="cls-32" points="8.29 19.26 11.56 19.26 14.82 19.26 14.82 22.52 14.82 24.16 14.82 25.79 11.56 25.79 8.29 25.79 8.29 24.16 8.29 22.52 8.29 19.26"/><polygon class="cls-31" points="8.21 19.13 11.47 19.13 14.74 19.13 14.74 22.39 14.74 24.02 14.74 25.65 11.47 25.65 8.21 25.65 8.21 24.02 8.21 22.39 8.21 19.13"/><polygon class="cls-30" points="8.13 18.99 11.39 18.99 14.66 18.99 14.66 22.25 14.66 23.89 14.66 25.52 11.39 25.52 8.13 25.52 8.13 23.89 8.13 22.26 8.13 18.99"/><polygon class="cls-149" points="8.05 18.86 11.31 18.86 14.58 18.86 14.58 22.12 14.58 23.75 14.58 25.39 11.31 25.39 8.05 25.39 8.05 23.75 8.05 22.12 8.05 18.86"/><polygon class="cls-150" points="7.97 18.73 11.23 18.73 14.5 18.73 14.5 21.99 14.5 23.62 14.5 25.25 11.23 25.25 7.97 25.25 7.97 23.62 7.97 21.99 7.97 18.73"/><polygon class="cls-27" points="7.89 18.59 11.15 18.59 14.42 18.59 14.42 21.85 14.42 23.49 14.42 25.12 11.15 25.12 7.89 25.12 7.89 23.49 7.89 21.86 7.89 18.59"/><polygon class="cls-26" points="7.81 18.46 11.07 18.46 14.34 18.46 14.34 21.72 14.34 23.35 14.34 24.98 11.07 24.98 7.81 24.98 7.81 23.35 7.81 21.72 7.81 18.46"/><polygon class="cls-25" points="7.73 18.32 10.99 18.32 14.26 18.32 14.26 21.59 14.26 23.22 14.26 24.85 10.99 24.85 7.73 24.85 7.73 23.22 7.73 21.59 7.73 18.32"/><polygon class="cls-24" points="7.65 18.19 10.91 18.19 14.18 18.19 14.18 21.45 14.18 23.09 14.18 24.72 10.91 24.72 7.65 24.72 7.65 23.09 7.65 21.45 7.65 18.19"/><polygon class="cls-23" points="7.57 18.06 10.83 18.06 14.1 18.06 14.1 21.32 14.1 22.95 14.1 24.58 10.83 24.58 7.57 24.58 7.57 22.95 7.57 21.32 7.57 18.06"/><polygon class="cls-22" points="7.49 17.92 10.75 17.92 14.02 17.92 14.02 21.19 14.02 22.82 14.02 24.45 10.75 24.45 7.49 24.45 7.49 22.82 7.49 21.19 7.49 17.92"/><polygon class="cls-151" points="7.41 17.79 10.67 17.79 13.94 17.79 13.94 21.05 13.94 22.68 13.94 24.32 10.67 24.32 7.41 24.32 7.41 22.68 7.41 21.05 7.41 17.79"/><polygon class="cls-20" points="7.33 17.66 10.59 17.66 13.86 17.66 13.86 20.92 13.86 22.55 13.86 24.18 10.59 24.18 7.33 24.18 7.33 22.55 7.33 20.92 7.33 17.66"/><polygon class="cls-19" points="7.25 17.52 10.51 17.52 13.78 17.52 13.78 20.78 13.78 22.42 13.78 24.05 10.51 24.05 7.25 24.05 7.25 22.42 7.25 20.79 7.25 17.52"/><polygon class="cls-18" points="7.17 17.39 10.43 17.39 13.7 17.39 13.7 20.65 13.7 22.28 13.7 23.91 10.43 23.91 7.17 23.91 7.17 22.28 7.17 20.65 7.17 17.39"/><polygon class="cls-17" points="7.09 17.25 10.35 17.25 13.62 17.25 13.62 20.52 13.62 22.15 13.62 23.78 10.35 23.78 7.09 23.78 7.09 22.15 7.09 20.52 7.09 17.25"/><polygon class="cls-152" points="7.01 17.12 10.27 17.12 13.54 17.12 13.54 20.38 13.54 22.02 13.54 23.65 10.27 23.65 7.01 23.65 7.01 22.02 7.01 20.38 7.01 17.12"/><polygon class="cls-15" points="6.93 16.99 10.19 16.99 13.46 16.99 13.46 20.25 13.46 21.88 13.46 23.51 10.19 23.51 6.93 23.51 6.93 21.88 6.93 20.25 6.93 16.99"/><polygon class="cls-153" points="6.85 16.85 10.11 16.85 13.38 16.85 13.38 20.12 13.38 21.75 13.38 23.38 10.11 23.38 6.85 23.38 6.85 21.75 6.85 20.12 6.85 16.85"/><polygon class="cls-154" points="6.77 16.72 10.03 16.72 13.29 16.72 13.29 19.98 13.29 21.61 13.29 23.25 10.03 23.25 6.77 23.25 6.77 21.61 6.77 19.98 6.77 16.72"/><polygon class="cls-12" points="6.69 16.59 9.95 16.59 13.21 16.59 13.21 19.85 13.21 21.48 13.21 23.11 9.95 23.11 6.69 23.11 6.69 21.48 6.69 19.85 6.69 16.59"/><polygon class="cls-11" points="6.61 16.45 9.87 16.45 13.13 16.45 13.13 19.71 13.13 21.35 13.13 22.98 9.87 22.98 6.61 22.98 6.61 21.35 6.61 19.71 6.61 16.45"/><polygon class="cls-10" points="13.05 22.84 9.79 22.84 6.53 22.84 6.53 21.21 6.53 19.58 6.53 16.32 9.79 16.32 13.05 16.32 13.05 19.58 13.05 21.21 13.05 22.84"/><path class="cls-11" d="M6.61,16.18h0s3.25,0,3.25,0h3.26v6.51H6.61V16.18Z"/><path class="cls-12" d="M6.69,16.05H9.94l3.24,0s0,3.23,0,3.24v3.26H6.69V16.05Z"/><path class="cls-154" d="M6.77,15.92H10l3.24,0s0,3.22,0,3.24,0,1.61,0,1.62v1.62H6.77V15.92Z"/><path class="cls-153" d="M6.85,15.78h0l3.24,0,3.22,0s0,3.2,0,3.23,0,1.6,0,1.62v1.62H6.85V15.78Z"/><path class="cls-15" d="M6.93,15.65h0l3.23,0s3.19,0,3.22.06,0,3.18,0,3.21,0,1.6,0,1.62v1.62H6.93V15.65Z"/><path class="cls-152" d="M7,15.51H7s3.19,0,3.23,0,3.17,0,3.2.07.05,3.17.07,3.2,0,1.59,0,1.62,0,1.59,0,1.61H7V15.51Z"/><path class="cls-17" d="M7.09,15.38h0s3.18,0,3.22,0,3.16.05,3.2.08.06,3.15.08,3.2,0,1.58,0,1.6,0,1.59,0,1.62H7.09V15.38Z"/><path class="cls-18" d="M7.17,15.25h0c.06,0,3.16,0,3.21,0s3.15.05,3.19.09.07,3.14.09,3.19,0,1.58,0,1.6,0,1.58,0,1.61H7.17V15.25Z"/><path class="cls-19" d="M7.25,15.11h0c.07,0,3.15,0,3.21,0s3.13.06,3.17.1.08,3.12.11,3.18,0,1.57,0,1.6,0,1.58,0,1.61H7.25V15.11Z"/><path class="cls-20" d="M7.33,15h0c.07,0,3.14,0,3.2,0s3.12.07,3.17.12.09,3.1.11,3.16,0,1.57,0,1.6,0,1.57,0,1.61H7.33V15Z"/><path class="cls-151" d="M7.41,14.85h0c.08,0,3.13,0,3.2,0s3.1.08,3.15.13.1,3.08.13,3.15,0,1.56,0,1.6,0,1.56,0,1.6H7.41V14.85Z"/><path class="cls-22" d="M7.49,14.71h0c.09,0,3.12,0,3.19,0s3.09.08,3.15.14.1,3.07.14,3.15,0,1.55,0,1.59,0,1.55,0,1.6H7.49V14.71Z"/><path class="cls-23" d="M7.57,14.58h0c.1,0,3.1,0,3.19.05s3.07.09,3.13.15.12,3.06.15,3.14,0,1.54,0,1.59,0,1.55,0,1.6H7.57V14.58Z"/><path class="cls-24" d="M7.65,14.44h0c.1,0,3.09,0,3.18.06s3.06.1,3.13.16.12,3,.16,3.13,0,1.54,0,1.59,0,1.54,0,1.59H7.65V14.44Z"/><path class="cls-25" d="M7.73,14.31h0c.11,0,3.08,0,3.18.06s3,.1,3.11.18.13,3,.17,3.11,0,1.53.05,1.58,0,1.54,0,1.6H7.73V14.31Z"/><path class="cls-26" d="M7.81,14.18h0c.12,0,3.07,0,3.17.06s3,.11,3.11.19.14,3,.18,3.11,0,1.52.05,1.57,0,1.53,0,1.59H7.81V14.18Z"/><path class="cls-27" d="M7.89,14h0c.13,0,3.05,0,3.16.07s3,.12,3.1.2.15,3,.2,3.1,0,1.51.05,1.57,0,1.53,0,1.59H7.89V14Z"/><path class="cls-150" d="M8,13.91H8c.13,0,3,0,3.16.08s3,.11,3.09.2.15,3,.2,3.09.05,1.51.06,1.57,0,1.52,0,1.59H8V13.91Z"/><path class="cls-149" d="M8.05,13.78h0c.14,0,3,0,3.15.08s3,.12,3.08.21.17,3,.22,3.08,0,1.5.06,1.57,0,1.51,0,1.58H8.05V13.78Z"/><path class="cls-30" d="M8.13,13.64h0c.15,0,3,0,3.15.09s3,.13,3.07.23.17,2.94.22,3.06,0,1.5.07,1.57,0,1.51,0,1.58H8.13V13.64Z"/><path class="cls-31" d="M8.21,13.51h0c.16,0,3,0,3.14.09s3,.14,3.06.24.18,2.92.24,3.06,0,1.48.07,1.56,0,1.5,0,1.58H8.21V13.51Z"/><path class="cls-32" d="M8.29,13.37h0c.16,0,3,0,3.14.1s2.94.14,3,.25.2,2.91.26,3,0,1.48.07,1.56,0,1.49,0,1.57H8.29V13.37Z"/><path class="cls-33" d="M8.37,13.24h0c.17,0,3,0,3.13.1s2.93.15,3,.26.2,2.89.26,3,.06,1.48.07,1.56,0,1.48,0,1.57H8.37V13.24Z"/><path class="cls-34" d="M8.45,13.11h0c.18,0,3,0,3.12.1s2.92.16,3,.27.21,2.88.28,3,.06,1.47.07,1.55,0,1.49,0,1.57H8.45V13.11Z"/><path class="cls-35" d="M8.53,13h0c.19,0,3,0,3.12.11s2.9.16,3,.29.22,2.85.28,3,.06,1.46.08,1.54,0,1.48,0,1.57H8.53V13Z"/><path class="cls-148" d="M8.61,12.84h0c.2,0,3,0,3.11.11s2.89.17,3,.3.23,2.84.3,3,.06,1.45.08,1.54,0,1.47,0,1.57H8.61V12.84Z"/><path class="cls-37" d="M8.69,12.71h0c.2,0,2.93,0,3.11.11s2.87.18,3,.31.23,2.83.31,3,.06,1.45.08,1.54,0,1.46,0,1.56H8.69V12.71Z"/><path class="cls-38" d="M8.77,12.57h0c.21,0,2.92,0,3.1.12s2.86.19,3,.32.25,2.81.32,3,.07,1.44.09,1.54,0,1.46,0,1.56H8.77V12.57Z"/><path class="cls-39" d="M8.85,12.44h0c.22,0,2.91,0,3.1.12s2.84.19,3,.33.25,2.8.33,3,.07,1.44.09,1.54,0,1.45,0,1.56H8.85V12.44Z"/><path class="cls-147" d="M8.93,12.3h0c.23,0,2.9,0,3.09.13s2.83.2,3,.34.26,2.78.35,3,.07,1.42.09,1.53,0,1.44,0,1.55H8.93V12.3Z"/><path class="cls-41" d="M9,12.17H9c.23,0,2.89.05,3.08.13s2.82.21,3,.36.27,2.76.35,3,.08,1.42.1,1.53,0,1.43,0,1.55H9V12.17Z"/><path class="cls-42" d="M9.09,12h0c.24,0,2.87.05,3.08.13s2.8.21,2.95.37.28,2.75.37,3,.07,1.41.1,1.53,0,1.43,0,1.54H9.09V12Z"/><path class="cls-43" d="M9.18,11.9h0c.24,0,2.85,0,3.06.14s2.79.22,2.94.38.29,2.73.38,2.94.08,1.41.11,1.52,0,1.43,0,1.55H9.18V11.9Z"/><path class="cls-146" d="M9.26,11.77h0c.25,0,2.84.05,3.06.14s2.76.23,2.93.39.3,2.72.39,2.93.08,1.4.11,1.52,0,1.42,0,1.55H9.26V11.77Z"/><path class="cls-45" d="M9.34,11.64h0c.25,0,2.83,0,3.05.14s2.75.23,2.92.4.31,2.7.41,2.93.08,1.39.1,1.51,0,1.41,0,1.54H9.34V11.64Z"/><path class="cls-46" d="M9.42,11.5h0c.26,0,2.82.06,3.05.15s2.73.24,2.91.42.31,2.68.41,2.91.09,1.39.11,1.51,0,1.41,0,1.54H9.42V11.5Z"/><path class="cls-47" d="M9.5,11.37h0c.27,0,2.8.05,3,.15s2.72.25,2.9.43.33,2.66.43,2.9.09,1.38.11,1.51,0,1.4,0,1.54H9.5V11.37Z"/><path class="cls-48" d="M9.58,11.23h0a30.11,30.11,0,0,1,3,.16c.25.11,2.71.26,2.9.44s.33,2.65.43,2.89.09,1.38.12,1.51,0,1.39,0,1.53H9.58V11.23Z"/><path class="cls-49" d="M9.66,11.1h0a30.27,30.27,0,0,1,3,.16c.25.11,2.69.26,2.88.45s.34,2.64.45,2.89.09,1.36.12,1.5,0,1.38,0,1.53H9.66V11.1Z"/><path class="cls-50" d="M9.74,11h0a27.23,27.23,0,0,1,3,.17,28.86,28.86,0,0,1,2.88.45c.19.2.35,2.62.46,2.88s.09,1.36.12,1.5,0,1.38,0,1.52H9.74V11Z"/><path class="cls-145" d="M9.82,10.83h0a25,25,0,0,1,3,.18,28.43,28.43,0,0,1,2.86.47,28,28,0,0,1,.47,2.86c.06.13.1,1.35.13,1.49s0,1.38,0,1.53H9.82V10.83Z"/><path class="cls-52" d="M9.9,10.7h0a24.83,24.83,0,0,1,3,.18,25.84,25.84,0,0,1,2.86.48c.2.2.36,2.58.48,2.85s.1,1.35.13,1.49,0,1.37,0,1.53H9.9V10.7Z"/><path class="cls-53" d="M10,10.57h0a24.83,24.83,0,0,1,3,.18,25.48,25.48,0,0,1,2.84.49,25.48,25.48,0,0,1,.49,2.84c.06.14.11,1.34.14,1.49s0,1.36,0,1.52H10V10.57Z"/><path class="cls-54" d="M10.06,10.43h0a24.65,24.65,0,0,1,3,.19,28,28,0,0,1,2.84.5A27.05,27.05,0,0,1,16.4,14c.06.14.11,1.33.14,1.48s0,1.36,0,1.52H10.06V10.43Z"/><path class="cls-55" d="M10.14,10.3h0a24.36,24.36,0,0,1,3,.19A27.31,27.31,0,0,1,16,11a27.29,27.29,0,0,1,.52,2.83c.06.14.1,1.32.14,1.48s0,1.35,0,1.52H10.14V10.3Z"/><path class="cls-56" d="M10.22,10.16h0a22.64,22.64,0,0,1,3,.2,22.53,22.53,0,0,1,2.81.53,22.53,22.53,0,0,1,.53,2.81c.06.15.11,1.32.15,1.48s.05,1.34.05,1.51H10.22V10.16Z"/><path class="cls-57" d="M10.3,10h0a22.37,22.37,0,0,1,3,.2,24.51,24.51,0,0,1,2.81.54,23.93,23.93,0,0,1,.54,2.8c.06.15.11,1.31.14,1.48s.06,1.33.06,1.51H10.3V10Z"/><path class="cls-58" d="M10.38,9.9h0a22.48,22.48,0,0,1,3,.2,23.75,23.75,0,0,1,2.79.55,22,22,0,0,1,.55,2.8c.07.15.12,1.3.15,1.47s.06,1.33.06,1.5H10.38V9.9Z"/><path class="cls-144" d="M10.46,9.76h0a22.21,22.21,0,0,1,3,.21,21.86,21.86,0,0,1,2.79.56,21.86,21.86,0,0,1,.56,2.79c.07.15.12,1.3.15,1.47s.06,1.32.06,1.5H10.46V9.76Z"/><path class="cls-60" d="M10.54,9.63h0a20.66,20.66,0,0,1,3,.21,23.39,23.39,0,0,1,2.77.57,24,24,0,0,1,.58,2.78c.06.16.12,1.29.15,1.46s.06,1.32.06,1.51H10.54V9.63Z"/><path class="cls-61" d="M10.62,9.5h0a20.52,20.52,0,0,1,3,.21,21.54,21.54,0,0,1,2.77.59,23.21,23.21,0,0,1,.58,2.76c.07.16.12,1.29.16,1.46s.06,1.31.06,1.5H10.62V9.5Z"/><path class="cls-62" d="M10.7,9.36h0a20.62,20.62,0,0,1,3,.22,21.23,21.23,0,0,1,2.75.6,21.23,21.23,0,0,1,.6,2.75c.07.17.12,1.28.16,1.46s.06,1.31.06,1.5H10.7V9.36Z"/><path class="cls-63" d="M10.78,9.23h0a20.38,20.38,0,0,1,3,.22,19.69,19.69,0,0,1,2.75.61,21.23,21.23,0,0,1,.6,2.75c.08.17.13,1.27.17,1.45s.06,1.3.06,1.5H10.78V9.23Z"/><path class="cls-64" d="M10.86,9.09h0a20.12,20.12,0,0,1,2.94.23,20.71,20.71,0,0,1,2.74.62,20.71,20.71,0,0,1,.62,2.74c.07.17.13,1.26.17,1.45s.06,1.29.06,1.49H10.86V9.09Z"/><path class="cls-65" d="M10.94,9h0a18.82,18.82,0,0,1,2.94.23,20.92,20.92,0,0,1,2.73.63,20.92,20.92,0,0,1,.63,2.73c.07.18.13,1.26.17,1.45s.06,1.28.06,1.49H10.94V9Z"/><path class="cls-66" d="M11,8.83h0a18.78,18.78,0,0,1,5.65.87,19.28,19.28,0,0,1,.64,2.72c.08.18.14,1.25.18,1.45s.06,1.28.06,1.48H11V8.83Z"/><path class="cls-143" d="M11.1,8.69h0a18.12,18.12,0,0,1,5.63.9,18.69,18.69,0,0,1,.66,2.7c.08.19.14,1.25.18,1.45s.06,1.27.06,1.48H11.1V8.69Z"/><path class="cls-68" d="M11.18,8.56h0a18.56,18.56,0,0,1,2.92.24,18.69,18.69,0,0,1,2.7.67,17.46,17.46,0,0,1,.66,2.7c.08.18.14,1.23.19,1.44s.06,1.26.06,1.48H11.18V8.56Z"/><path class="cls-69" d="M11.26,8.43h0a17.44,17.44,0,0,1,2.92.24,17.23,17.23,0,0,1,2.68.68A17.35,17.35,0,0,1,17.54,12c.08.19.14,1.23.18,1.43A14.52,14.52,0,0,1,17.79,15H11.26V8.43Z"/><path class="cls-70" d="M11.34,8.29h0a17.31,17.31,0,0,1,2.91.25,18.43,18.43,0,0,1,2.68.69,18.43,18.43,0,0,1,.69,2.68c.08.19.14,1.22.18,1.43a14.52,14.52,0,0,1,.07,1.48H11.34V8.29Z"/><path class="cls-70" d="M11.42,8.16h0a16.21,16.21,0,0,1,2.9.26A16.82,16.82,0,0,1,17,9.11a16.08,16.08,0,0,1,.7,2.67c.08.2.15,1.22.19,1.43A14.39,14.39,0,0,1,18,14.69H11.42V8.16Z"/><path class="cls-71" d="M11.5,8h0a16.2,16.2,0,0,1,2.9.27A15.71,15.71,0,0,1,17.06,9a16.71,16.71,0,0,1,.71,2.66c.08.19.15,1.2.19,1.42A14.33,14.33,0,0,1,18,14.55H11.5V8Z"/><path class="cls-72" d="M11.58,7.89h0a16,16,0,0,1,2.89.27,15.36,15.36,0,0,1,2.65.72,15.36,15.36,0,0,1,.72,2.65A13.12,13.12,0,0,1,18,13a14.33,14.33,0,0,1,.07,1.47H11.58V7.89Z"/><path class="cls-142" d="M11.66,7.76h0A15.15,15.15,0,0,1,14.55,8a15.5,15.5,0,0,1,2.64.73,15.5,15.5,0,0,1,.73,2.64c.09.2.15,1.2.2,1.42a14.13,14.13,0,0,1,.07,1.46H11.66V7.76Z"/><path class="cls-74" d="M11.74,7.62h0a15,15,0,0,1,2.88.28,15.15,15.15,0,0,1,2.63.74A15.68,15.68,0,0,1,18,11.27c.08.21.15,1.19.2,1.42a14,14,0,0,1,.07,1.46H11.74V7.62Z"/><path class="cls-141" d="M11.82,7.49h0a15.12,15.12,0,0,1,2.88.28,15.3,15.3,0,0,1,2.62.75,15.3,15.3,0,0,1,.75,2.62c.09.22.16,1.19.21,1.42A14,14,0,0,1,18.35,14H11.82V7.49Z"/><path class="cls-76" d="M11.9,7.36h0a14.94,14.94,0,0,1,2.87.28,14.13,14.13,0,0,1,2.61.77A15,15,0,0,1,18.15,11c.09.21.16,1.17.21,1.4a14.27,14.27,0,0,1,.07,1.46H11.9V7.36Z"/><path class="cls-77" d="M12,7.22h0a14.81,14.81,0,0,1,5.47,1.07,14.84,14.84,0,0,1,.77,2.6,13.15,13.15,0,0,1,.22,1.4,14.13,14.13,0,0,1,.07,1.46H12V7.22Z"/><path class="cls-78" d="M12.06,7.09h0a14.08,14.08,0,0,1,2.86.29,14.75,14.75,0,0,1,2.59.79,14.75,14.75,0,0,1,.79,2.59c.09.22.17,1.16.22,1.4s.07,1.2.07,1.46H12.06V7.09Z"/><path class="cls-79" d="M12.14,7h0a14,14,0,0,1,2.85.3,13.63,13.63,0,0,1,2.58.8,13.87,13.87,0,0,1,.81,2.58,13.13,13.13,0,0,1,.21,1.4,13.94,13.94,0,0,1,.08,1.45H12.14V7Z"/><path class="cls-140" d="M12.22,6.82h0a14,14,0,0,1,2.85.3,13.77,13.77,0,0,1,2.57.81,13.87,13.87,0,0,1,.81,2.58,12.22,12.22,0,0,1,.22,1.39,13.94,13.94,0,0,1,.08,1.45H12.22V6.82Z"/><path class="cls-81" d="M12.3,6.69h0a13.81,13.81,0,0,1,2.84.3,13,13,0,0,1,2.56.83,13.46,13.46,0,0,1,.83,2.56,12.58,12.58,0,0,1,.22,1.39,13.74,13.74,0,0,1,.08,1.44H12.3V6.69Z"/><path class="cls-139" d="M12.38,6.55h0A13.25,13.25,0,0,1,17.77,7.7a12.7,12.7,0,0,1,.83,2.55,12.21,12.21,0,0,1,.23,1.39,13.59,13.59,0,0,1,.08,1.44H12.38V6.55Z"/><path class="cls-83" d="M12.47,6.42h0a13,13,0,0,1,2.82.31,12.85,12.85,0,0,1,2.54.85,12.85,12.85,0,0,1,.85,2.54,12.59,12.59,0,0,1,.23,1.39A13.45,13.45,0,0,1,19,13H12.47V6.42Z"/><path class="cls-84" d="M12.55,6.29h0A12.74,12.74,0,0,1,17.9,7.46,13.21,13.21,0,0,1,18.76,10,12.21,12.21,0,0,1,19,11.38a13.55,13.55,0,0,1,.08,1.43H12.55V6.29Z"/><path class="cls-85" d="M12.63,6.15h0a12.94,12.94,0,0,1,2.81.32A13.12,13.12,0,0,1,18,7.34a12,12,0,0,1,.87,2.53,10.32,10.32,0,0,1,.24,1.37,13.74,13.74,0,0,1,.08,1.44H12.63V6.15Z"/><path class="cls-86" d="M12.71,6h0a12.26,12.26,0,0,1,2.8.32A11.92,11.92,0,0,1,18,7.23a12.4,12.4,0,0,1,.88,2.51c.1.24.18,1.11.24,1.37a13.59,13.59,0,0,1,.08,1.44H12.71V6Z"/><path class="cls-138" d="M12.79,5.88h0a12.26,12.26,0,0,1,2.8.33,11.77,11.77,0,0,1,2.5.9,12.13,12.13,0,0,1,.9,2.5c.1.25.18,1.1.24,1.37a13.41,13.41,0,0,1,.08,1.43H12.79V5.88Z"/><path class="cls-88" d="M12.87,5.75h0a12.11,12.11,0,0,1,2.79.33,12.36,12.36,0,0,1,2.5.91,11.68,11.68,0,0,1,.9,2.49,12.69,12.69,0,0,1,.25,1.37,13.55,13.55,0,0,1,.08,1.43H12.87V5.75Z"/><path class="cls-137" d="M13,5.62h0A12.18,12.18,0,0,1,15.74,6a11.63,11.63,0,0,1,2.48.92,11.63,11.63,0,0,1,.92,2.48,12.26,12.26,0,0,1,.25,1.37,13.37,13.37,0,0,1,.08,1.42H13V5.62Z"/><path class="cls-90" d="M13,5.48h0a11.5,11.5,0,0,1,2.78.34,11.37,11.37,0,0,1,2.47.93,11,11,0,0,1,.93,2.48,12.1,12.1,0,0,1,.26,1.36A13.22,13.22,0,0,1,19.55,12H13V5.48Z"/><path class="cls-91" d="M13.11,5.35h0a11.42,11.42,0,0,1,2.77.34,11.92,11.92,0,0,1,2.47.94,10.89,10.89,0,0,1,.94,2.47,9.9,9.9,0,0,1,.25,1.36,10.93,10.93,0,0,1,.09,1.42H13.11V5.35Z"/><path class="cls-136" d="M13.19,5.22h0A11,11,0,0,1,16,5.57a10.31,10.31,0,0,1,2.45.95,10.77,10.77,0,0,1,1,2.45,12.08,12.08,0,0,1,.25,1.36,11,11,0,0,1,.09,1.41H13.19V5.22Z"/><path class="cls-93" d="M13.27,5.08h0A10.82,10.82,0,0,1,16,5.44a10.33,10.33,0,0,1,2.45,1,11.37,11.37,0,0,1,1,2.44,9.91,9.91,0,0,1,.26,1.36,10.89,10.89,0,0,1,.09,1.41H13.27V5.08Z"/><path class="cls-135" d="M13.35,5h0a10.87,10.87,0,0,1,2.76.36,10.63,10.63,0,0,1,2.43,1,10.55,10.55,0,0,1,1,2.44,11.75,11.75,0,0,1,.26,1.34,11,11,0,0,1,.09,1.42H13.35V5Z"/><path class="cls-95" d="M13.43,4.81h0a10.37,10.37,0,0,1,2.75.37,10.65,10.65,0,0,1,2.43,1,10.65,10.65,0,0,1,1,2.43,9.63,9.63,0,0,1,.27,1.34,10.88,10.88,0,0,1,.1,1.41H13.43V4.81Z"/><path class="cls-96" d="M13.51,4.68h0a10.37,10.37,0,0,1,2.75.37,10.09,10.09,0,0,1,2.41,1,10.62,10.62,0,0,1,1,2.42,9.93,9.93,0,0,1,.27,1.34,10.88,10.88,0,0,1,.1,1.41H13.51V4.68Z"/><path class="cls-97" d="M13.59,4.55h0a10.24,10.24,0,0,1,2.74.37,10.13,10.13,0,0,1,2.41,1,10.3,10.3,0,0,1,1,2.4A11.35,11.35,0,0,1,20,9.67a10.85,10.85,0,0,1,.1,1.4H13.59V4.55Z"/><path class="cls-98" d="M13.67,4.41h0a10.24,10.24,0,0,1,2.74.38,10,10,0,0,1,2.39,1,9.84,9.84,0,0,1,1,2.39,10,10,0,0,1,.28,1.34,10.73,10.73,0,0,1,.1,1.4H13.67V4.41Z"/><path class="cls-134" d="M13.75,4.28h0a9.84,9.84,0,0,1,2.73.38,9.49,9.49,0,0,1,2.39,1,10.27,10.27,0,0,1,1,2.39,10.78,10.78,0,0,1,.28,1.33,10.6,10.6,0,0,1,.1,1.4H13.75V4.28Z"/><path class="cls-100" d="M13.83,4.15h0a9.81,9.81,0,0,1,5.1,1.42A9.44,9.44,0,0,1,20,8a9.51,9.51,0,0,1,.29,1.33,10.57,10.57,0,0,1,.1,1.39H13.83V4.15Z"/><path class="cls-101" d="M13.91,4h0a9.72,9.72,0,0,1,2.72.39,9.52,9.52,0,0,1,2.36,1,9.42,9.42,0,0,1,1.06,2.37,11.64,11.64,0,0,1,.29,1.33,10.57,10.57,0,0,1,.1,1.39H13.91V4Z"/><path class="cls-102" d="M14,3.88h0a9.59,9.59,0,0,1,2.71.39,9.21,9.21,0,0,1,2.36,1.07,9.67,9.67,0,0,1,1.07,2.35A11.47,11.47,0,0,1,20.42,9a10.73,10.73,0,0,1,.1,1.4H14V3.88Z"/><path class="cls-103" d="M14.07,3.74h0a9.7,9.7,0,0,1,2.71.4,8.78,8.78,0,0,1,2.34,1.08A8.7,8.7,0,0,1,20.2,7.57a8.27,8.27,0,0,1,.29,1.31,9.09,9.09,0,0,1,.11,1.39H14.07V3.74Z"/><path class="cls-104" d="M14.15,3.61h0a9.23,9.23,0,0,1,2.7.4A9.12,9.12,0,0,1,19.19,5.1a9.12,9.12,0,0,1,1.09,2.34,8,8,0,0,1,.29,1.31,9.09,9.09,0,0,1,.11,1.39H14.15V3.61Z"/><path class="cls-105" d="M14.23,3.48h0a9.23,9.23,0,0,1,2.7.4A9,9,0,0,1,19.25,5a8.91,8.91,0,0,1,1.1,2.33,9.58,9.58,0,0,1,.3,1.31A9.07,9.07,0,0,1,20.76,10H14.23V3.48Z"/><path class="cls-133" d="M14.31,3.34h0A9.12,9.12,0,0,1,17,3.75a8.72,8.72,0,0,1,2.32,1.11,8.72,8.72,0,0,1,1.11,2.32,9.25,9.25,0,0,1,.3,1.31,9,9,0,0,1,.11,1.38H14.31V3.34Z"/><path class="cls-107" d="M14.39,3.21h0a9,9,0,0,1,2.68.41,8.56,8.56,0,0,1,2.31,1.13,8.64,8.64,0,0,1,1.13,2.3,9.58,9.58,0,0,1,.3,1.31,8.86,8.86,0,0,1,.11,1.38H14.39V3.21Z"/><path class="cls-108" d="M14.47,3.08h0a8.79,8.79,0,0,1,2.68.41,8.67,8.67,0,0,1,2.3,1.14,8.5,8.5,0,0,1,1.13,2.3,7.71,7.71,0,0,1,.31,1.3A8.83,8.83,0,0,1,21,9.6H14.47V3.08Z"/><path class="cls-109" d="M14.55,2.94h0a8.68,8.68,0,0,1,2.67.42,8.48,8.48,0,0,1,2.29,1.15A8.2,8.2,0,0,1,20.66,6.8,9.13,9.13,0,0,1,21,8.1a8.83,8.83,0,0,1,.11,1.37H14.55V2.94Z"/><path class="cls-110" d="M14.63,2.81h0a8.4,8.4,0,0,1,4.95,1.58,8.14,8.14,0,0,1,1.15,2.28A7.72,7.72,0,0,1,21.05,8a8.74,8.74,0,0,1,.11,1.37H14.63V2.81Z"/><path class="cls-111" d="M14.71,2.67h0a8.57,8.57,0,0,1,2.66.43,8.41,8.41,0,0,1,2.27,1.17,8.56,8.56,0,0,1,1.17,2.27,8.11,8.11,0,0,1,.32,1.29,8.94,8.94,0,0,1,.11,1.37H14.71V2.67Z"/><path class="cls-112" d="M14.79,2.54h0A8.62,8.62,0,0,1,17.45,3a8.27,8.27,0,0,1,2.26,1.19,8.31,8.31,0,0,1,1.18,2.25,9,9,0,0,1,.32,1.29,8.83,8.83,0,0,1,.11,1.37H14.79V2.54Z"/><path class="cls-113" d="M14.87,2.41h0a8.27,8.27,0,0,1,2.65.43A8,8,0,0,1,19.77,4,7.93,7.93,0,0,1,21,6.29a8.89,8.89,0,0,1,.33,1.28,8.71,8.71,0,0,1,.11,1.36H14.87V2.41Z"/><path class="cls-114" d="M15,2.27h0a7.91,7.91,0,0,1,2.64.45,7.53,7.53,0,0,1,2.24,1.2A8.06,8.06,0,0,1,21,6.16a9.24,9.24,0,0,1,.33,1.28,8.71,8.71,0,0,1,.11,1.36H15V2.27Z"/><path class="cls-115" d="M15,2.14h0a7.91,7.91,0,0,1,2.64.45A7.63,7.63,0,0,1,19.9,3.8,7.63,7.63,0,0,1,21.11,6a6.87,6.87,0,0,1,.33,1.28,7.64,7.64,0,0,1,.12,1.36H15V2.14Z"/><path class="cls-116" d="M15.11,2h0a7.85,7.85,0,0,1,2.63.45A7.47,7.47,0,0,1,20,3.68,7.75,7.75,0,0,1,21.19,5.9a7.08,7.08,0,0,1,.33,1.28,7.53,7.53,0,0,1,.12,1.35H15.11V2Z"/><path class="cls-117" d="M15.19,1.87h0A7.8,7.8,0,0,1,20,3.56a7.89,7.89,0,0,1,1.24,2.22,7.39,7.39,0,0,1,.33,1.27,7.45,7.45,0,0,1,.12,1.35H15.19V1.87Z"/><path class="cls-132" d="M15.27,1.74h0a7.56,7.56,0,0,1,2.62.46,7.23,7.23,0,0,1,2.2,1.25,7.23,7.23,0,0,1,1.25,2.2,7.66,7.66,0,0,1,.34,1.27,7.45,7.45,0,0,1,.12,1.35H15.27V1.74Z"/><path class="cls-119" d="M15.35,1.6h0A7.56,7.56,0,0,1,18,2.07a7.67,7.67,0,0,1,2.19,1.26,7.54,7.54,0,0,1,1.26,2.19,7.73,7.73,0,0,1,.46,2.61H15.35V1.6Z"/><path class="cls-120" d="M15.43,1.47h0A7.51,7.51,0,0,1,18,1.94a7.3,7.3,0,0,1,2.18,1.27,7.3,7.3,0,0,1,1.27,2.18,7.84,7.84,0,0,1,.35,1.26A7.53,7.53,0,0,1,22,8H15.43V1.47Z"/><path class="cls-121" d="M15.51,1.34h0a7.41,7.41,0,0,1,2.6.47,7.32,7.32,0,0,1,2.18,1.28,7.27,7.27,0,0,1,1.28,2.17,7.57,7.57,0,0,1,.35,1.26A7.42,7.42,0,0,1,22,7.86H15.51V1.34Z"/><path class="cls-122" d="M15.59,1.2h0A7.29,7.29,0,0,1,20.35,3a7.2,7.2,0,0,1,1.3,2.17,7.21,7.21,0,0,1,.47,2.59H15.59V1.2Z"/><path class="cls-123" d="M15.68,1.07h0a7.17,7.17,0,0,1,4.74,1.79A7.1,7.1,0,0,1,21.72,5a6.43,6.43,0,0,1,.36,1.25A7.42,7.42,0,0,1,22.2,7.6H15.68V1.07Z"/><path class="cls-124" d="M15.76.94h0a7.17,7.17,0,0,1,2.58.48,7,7,0,0,1,2.14,1.32A6.8,6.8,0,0,1,21.8,4.88a7.48,7.48,0,0,1,.36,1.25,7.31,7.31,0,0,1,.12,1.33H15.76V.94Z"/><path class="cls-125" d="M15.84.8h0a7.08,7.08,0,0,1,2.57.49,6.9,6.9,0,0,1,2.13,1.33,6.71,6.71,0,0,1,1.33,2.13A7.23,7.23,0,0,1,22.24,6a7.23,7.23,0,0,1,.12,1.33H15.84V.8Z"/><path class="cls-126" d="M15.92.67h0a6.87,6.87,0,0,1,2.57.49A7.19,7.19,0,0,1,20.61,2.5,6.92,6.92,0,0,1,22,4.63a7.12,7.12,0,0,1,.37,1.24,7.15,7.15,0,0,1,.12,1.33H15.92V.67Z"/><path class="cls-127" d="M16,.53h0a6.83,6.83,0,0,1,4.67,1.85A6.75,6.75,0,0,1,22,4.5a6.54,6.54,0,0,1,.36,1.24,6.42,6.42,0,0,1,.13,1.32H16V.53Z"/><path class="cls-128" d="M16.08.4h0a6.74,6.74,0,0,1,2.55.5,6.62,6.62,0,0,1,2.11,1.37,6.72,6.72,0,0,1,1.36,2.1,6.74,6.74,0,0,1,.5,2.56H16.08V.4Z"/><path class="cls-129" d="M16.16.27h0A6.58,6.58,0,0,1,20.8,2.15a6.53,6.53,0,0,1,1.75,3.32,6.42,6.42,0,0,1,.13,1.32H16.16V.27Z"/><path class="cls-130" d="M16.24.13h0a6.51,6.51,0,0,1,2.54.51A6.59,6.59,0,0,1,20.87,2a6.83,6.83,0,0,1,1.39,2.08,6.47,6.47,0,0,1,.37,1.23,6.36,6.36,0,0,1,.13,1.32H16.24V.13Z"/><path class="cls-131" d="M22.84,6.53H16.32V0h0a6.52,6.52,0,0,1,6.52,6.53Z"/><polygon class="cls-1" points="6.53 6.53 3.26 6.53 0 6.53 0 3.26 0 0 3.26 0 6.53 0 6.53 3.26 6.53 6.53"/><path class="cls-2" d="M0,.25H6.53V6.78h0s-3.26,0-3.26,0H0S0,3.51,0,3.51Z"/><path class="cls-3" d="M0,.5H6.53V7H3.27L0,7S0,3.77,0,3.75,0,.52,0,.5Z"/><path class="cls-4" d="M0,.75H6.53V7.28H3.28L0,7.24S0,4,0,4,0,.77,0,.75Z"/><path class="cls-5" d="M0,1H6.53V7.53H3.29s-3.21,0-3.23,0,0-3.2,0-3.22S0,1,0,1Z"/><path class="cls-6" d="M0,1.26H6.53V7.78h0l-3.24,0s-3.19,0-3.22,0S0,4.52,0,4.49,0,1.29,0,1.26Z"/><path class="cls-7" d="M0,1.51H6.53V8h0L3.3,8S.12,8,.09,7.94,0,4.77,0,4.74,0,1.55,0,1.51Z"/><path class="cls-8" d="M0,1.76H6.53V8.28h0l-3.23,0S.13,8.21.1,8.18.05,5,0,5,0,1.81,0,1.76Z"/><path class="cls-9" d="M0,2H6.53V8.54h0c-.06,0-3.17,0-3.22,0S.15,8.45.12,8.42.05,5.28,0,5.23,0,2.06,0,2Z"/><path class="cls-10" d="M0,2.26H6.53V8.79h0c-.07,0-3.16,0-3.22,0S.17,8.69.13,8.65.06,5.53,0,5.47,0,2.32,0,2.26Z"/><path class="cls-11" d="M0,2.51H6.53V9h0C6.46,9,3.38,9,3.32,9S.19,8.94.15,8.89.06,5.78,0,5.72,0,2.58,0,2.51Z"/><path class="cls-12" d="M0,2.76H6.53V9.29h0c-.08,0-3.14,0-3.21,0S.21,9.18.16,9.13.07,6,0,6,0,2.84,0,2.76Z"/><path class="cls-13" d="M0,3H6.53V9.54h0c-.09,0-3.13,0-3.2,0S.23,9.42.18,9.36.08,6.28.05,6.21,0,3.1,0,3Z"/><path class="cls-14" d="M0,3.26H6.53V9.79h0c-.09,0-3.12,0-3.19,0S.25,9.66.19,9.6.08,6.53.05,6.45,0,3.35,0,3.26Z"/><path class="cls-15" d="M0,3.51H6.53V10h0c-.1,0-3.1,0-3.19,0S.27,9.9.21,9.84.09,6.78.06,6.7,0,3.61,0,3.51Z"/><path class="cls-16" d="M0,3.77H6.53v6.52h0c-.11,0-3.09,0-3.18-.06S.29,10.14.22,10.07.1,7,.06,7,0,3.87,0,3.77Z"/><path class="cls-17" d="M0,4H6.53v6.52h0c-.11,0-3.08,0-3.18-.06s-3-.1-3.11-.17S.1,7.29.06,7.19,0,4.13,0,4Z"/><path class="cls-18" d="M0,4.27H6.53v6.52h0c-.12,0-3.07,0-3.17-.06s-3-.11-3.11-.19-.14-3-.18-3.1S0,4.39,0,4.27Z"/><path class="cls-19" d="M0,4.52H6.53v6.53h0c-.13,0-3.06,0-3.17-.08s-3-.11-3.1-.19-.14-3-.19-3.1S0,4.64,0,4.52Z"/><path class="cls-20" d="M0,4.77H6.53V11.3h0c-.13,0-3.05,0-3.16-.08S.37,11.1.28,11,.12,8,.07,7.93,0,4.9,0,4.77Z"/><path class="cls-21" d="M0,5H6.53v6.53h0c-.14,0-3,0-3.16-.08s-3-.13-3.08-.22-.16-3-.21-3.08S0,5.16,0,5Z"/><path class="cls-22" d="M0,5.27H6.53V11.8h0c-.15,0-3,0-3.15-.08s-3-.13-3.07-.23-.17-3-.23-3.07S0,5.42,0,5.27Z"/><path class="cls-23" d="M0,5.52H6.53v6.53h0c-.16,0-3,0-3.14-.09s-3-.13-3.07-.23S.14,8.8.09,8.66,0,5.68,0,5.52Z"/><path class="cls-24" d="M0,5.77H6.53V12.3h0c-.16,0-3,0-3.14-.09S.44,12.07.34,12,.15,9.05.09,8.91,0,5.93,0,5.77Z"/><path class="cls-25" d="M0,6H6.53v6.53h0c-.17,0-3,0-3.13-.09s-2.94-.15-3-.26-.19-2.9-.26-3S0,6.19,0,6Z"/><path class="cls-26" d="M0,6.28H6.53V12.8h0c-.18,0-3,0-3.13-.1s-2.92-.15-3-.26S.16,9.55.1,9.4,0,6.45,0,6.28Z"/><path class="cls-27" d="M0,6.53H6.53v6.52h0c-.18,0-3,0-3.12-.1s-2.91-.16-3-.28S.17,9.8.1,9.65,0,6.71,0,6.53Z"/><path class="cls-28" d="M0,6.78H6.53V13.3h0c-.19,0-2.95,0-3.12-.1S.52,13,.4,12.91s-.22-2.86-.29-3S0,7,0,6.78Z"/><path class="cls-29" d="M0,7H6.53v6.53h0c-.2,0-2.94,0-3.11-.11s-2.88-.18-3-.31-.23-2.84-.3-3S0,7.22,0,7Z"/><path class="cls-30" d="M0,7.28H6.53v6.53h0c-.2,0-2.93,0-3.11-.12s-2.86-.18-3-.31-.24-2.82-.32-3S0,7.48,0,7.28Z"/><path class="cls-31" d="M0,7.53H6.53v6.53h0c-.21,0-2.92,0-3.1-.12s-2.85-.19-3-.32-.25-2.81-.32-3S0,7.74,0,7.53Z"/><path class="cls-32" d="M0,7.78H6.53v6.53h0c-.22,0-2.91,0-3.09-.12s-2.84-.2-3-.34-.26-2.79-.34-3S0,8,0,7.78Z"/><path class="cls-33" d="M0,8H6.53v6.53h0c-.22,0-2.9-.05-3.09-.13s-2.82-.2-3-.34-.26-2.78-.34-3S0,8.25,0,8Z"/><path class="cls-34" d="M0,8.28H6.53v6.53h0c-.23,0-2.88-.05-3.08-.13s-2.81-.2-3-.35-.28-2.77-.36-3S0,8.51,0,8.28Z"/><path class="cls-35" d="M0,8.54H6.53v6.52h0c-.24,0-2.87-.05-3.08-.13S.65,14.72.5,14.56s-.28-2.75-.37-3S0,8.77,0,8.54Z"/><path class="cls-36" d="M0,8.79H6.53v6.52h0c-.25,0-2.86-.05-3.07-.14S.67,15,.51,14.8s-.28-2.73-.37-3S0,9,0,8.79Z"/><path class="cls-37" d="M0,9H6.53v6.52h0c-.25,0-2.85-.05-3.07-.14S.69,15.2.53,15,.23,12.32.14,12.1,0,9.29,0,9Z"/><path class="cls-38" d="M0,9.29H6.53v6.53h0c-.26,0-2.84-.06-3.06-.15s-2.76-.23-2.93-.4-.3-2.7-.39-2.92S0,9.54,0,9.29Z"/><path class="cls-39" d="M0,9.54H6.53v6.53h0c-.27,0-2.83-.06-3.06-.15S.73,15.68.56,15.51.25,12.82.15,12.59,0,9.8,0,9.54Z"/><path class="cls-40" d="M0,9.79H6.53v6.53h0a30.51,30.51,0,0,1-3.05-.16c-.23-.1-2.73-.24-2.91-.42s-.32-2.67-.42-2.9S0,10.06,0,9.79Z"/><path class="cls-41" d="M0,10H6.53v6.53h0a30.31,30.31,0,0,1-3-.16c-.24-.1-2.72-.25-2.9-.43s-.33-2.66-.43-2.9A30.31,30.31,0,0,1,0,10Z"/><path class="cls-42" d="M0,10.29H6.53v6.53h0a30.31,30.31,0,0,1-3-.16c-.24-.11-2.7-.26-2.89-.44S.27,13.57.16,13.33A30.31,30.31,0,0,1,0,10.29Z"/><path class="cls-43" d="M0,10.54H6.53v6.53h0a27.41,27.41,0,0,1-3-.17,28.41,28.41,0,0,1-2.88-.45,28.41,28.41,0,0,1-.45-2.88A27.41,27.41,0,0,1,0,10.54Z"/><path class="cls-44" d="M0,10.79H6.53v6.53h0a27.41,27.41,0,0,1-3-.17C3.24,17,.83,16.88.63,16.69S.28,14.08.17,13.82A27.41,27.41,0,0,1,0,10.79Z"/><path class="cls-45" d="M0,11.05H6.53v6.52h0a27.09,27.09,0,0,1-3-.17,28,28,0,0,1-2.86-.47c-.2-.2-.36-2.6-.48-2.87A27.05,27.05,0,0,1,0,11.05Z"/><path class="cls-46" d="M0,11.3H6.53v6.52h0a27.09,27.09,0,0,1-3-.17,28.21,28.21,0,0,1-2.85-.49,27.75,27.75,0,0,1-.48-2.85A24.83,24.83,0,0,1,0,11.3Z"/><path class="cls-47" d="M0,11.55H6.53v6.52h0a24.83,24.83,0,0,1-3-.18A25.08,25.08,0,0,1,.68,17.4a28,28,0,0,1-.5-2.84A24.83,24.83,0,0,1,0,11.55Z"/><path class="cls-48" d="M0,11.8H6.53v6.53h0a24.82,24.82,0,0,1-3-.19,24.89,24.89,0,0,1-2.83-.51,24.9,24.9,0,0,1-.5-2.83A24.65,24.65,0,0,1,0,11.8Z"/><path class="cls-49" d="M0,12.05H6.53v6.53h0a24.52,24.52,0,0,1-3-.19,24.3,24.3,0,0,1-2.82-.52,25.11,25.11,0,0,1-.52-2.82A24.65,24.65,0,0,1,0,12.05Z"/><path class="cls-50" d="M0,12.3H6.53v6.53h0a22.52,22.52,0,0,1-3-.2,24.3,24.3,0,0,1-2.82-.52,27.08,27.08,0,0,1-.53-2.82A24.36,24.36,0,0,1,0,12.3Z"/><path class="cls-51" d="M0,12.55H6.53v6.53h0a22.52,22.52,0,0,1-3-.2,23.93,23.93,0,0,1-2.8-.54,22,22,0,0,1-.54-2.8A22.52,22.52,0,0,1,0,12.55Z"/><path class="cls-52" d="M0,12.8H6.53v6.53h0a22.26,22.26,0,0,1-3-.2,23.92,23.92,0,0,1-2.8-.55,23.92,23.92,0,0,1-.55-2.8A22.26,22.26,0,0,1,0,12.8Z"/><path class="cls-53" d="M0,13.05H6.53v6.53h0a22.37,22.37,0,0,1-3-.2,26.47,26.47,0,0,1-2.79-.56A24.16,24.16,0,0,1,.21,16,20.8,20.8,0,0,1,0,13.05Z"/><path class="cls-54" d="M0,13.3H6.53v6.53h0a20.66,20.66,0,0,1-3-.21,21.7,21.7,0,0,1-2.78-.57,21.7,21.7,0,0,1-.57-2.78A20.56,20.56,0,0,1,0,13.3Z"/><path class="cls-55" d="M0,13.56H6.53v6.52h0a20.66,20.66,0,0,1-3-.21,23.81,23.81,0,0,1-2.77-.58,23.81,23.81,0,0,1-.58-2.77A22.18,22.18,0,0,1,0,13.56Z"/><path class="cls-56" d="M0,13.81H6.53v6.52h0a20.52,20.52,0,0,1-3-.21,21.38,21.38,0,0,1-2.76-.6,21,21,0,0,1-.59-2.76A20.38,20.38,0,0,1,0,13.81Z"/><path class="cls-57" d="M0,14.06H6.53v6.52h0a19.18,19.18,0,0,1-3-.22,20,20,0,0,1-2.75-.6A20.87,20.87,0,0,1,.22,17,20.38,20.38,0,0,1,0,14.06Z"/><path class="cls-58" d="M0,14.31H6.53v6.53h0a19,19,0,0,1-2.95-.23A19.55,19.55,0,0,1,.84,20a21.07,21.07,0,0,1-.62-2.74A20.48,20.48,0,0,1,0,14.31Z"/><path class="cls-59" d="M0,14.56H6.53v6.53h0a18.73,18.73,0,0,1-2.94-.23,19.56,19.56,0,0,1-2.74-.63A20.56,20.56,0,0,1,.23,17.5,18.92,18.92,0,0,1,0,14.56Z"/><path class="cls-60" d="M0,14.81H6.53v6.53h0a18.91,18.91,0,0,1-2.94-.24,18,18,0,0,1-2.72-.63,19.28,19.28,0,0,1-.64-2.72A18.92,18.92,0,0,1,0,14.81Z"/><path class="cls-61" d="M0,15.06H6.53v6.53h0a18.68,18.68,0,0,1-2.93-.24,19,19,0,0,1-2.72-.64A19.28,19.28,0,0,1,.24,18,17.56,17.56,0,0,1,0,15.06Z"/><path class="cls-62" d="M0,15.31H6.53v6.53h0A18.68,18.68,0,0,1,3.6,21.6a18.69,18.69,0,0,1-2.7-.66A18.12,18.12,0,0,1,0,15.31Z"/><path class="cls-63" d="M0,15.56H6.53v6.53h0a18.56,18.56,0,0,1-2.92-.24,18.69,18.69,0,0,1-2.7-.67,18.37,18.37,0,0,1-.67-2.7A18.56,18.56,0,0,1,0,15.56Z"/><path class="cls-64" d="M0,15.82H6.53v6.52h0a17.43,17.43,0,0,1-2.92-.25,18.42,18.42,0,0,1-2.68-.67A17.61,17.61,0,0,1,0,15.82Z"/><path class="cls-65" d="M0,16.07H6.53v6.52h0a17.22,17.22,0,0,1-2.91-.25,17,17,0,0,1-2.68-.69A18.11,18.11,0,0,1,.25,19,17.19,17.19,0,0,1,0,16.07Z"/><path class="cls-66" d="M0,16.32H6.53v6.52h0a17.4,17.4,0,0,1-2.91-.25A17.84,17.84,0,0,1,1,21.89a16.08,16.08,0,0,1-.7-2.67A16.21,16.21,0,0,1,0,16.32Z"/><path class="cls-67" d="M0,16.57H6.53V23.1h0a16.2,16.2,0,0,1-2.9-.27A15.71,15.71,0,0,1,1,22.12a16.71,16.71,0,0,1-.71-2.66A16,16,0,0,1,0,16.57Z"/><path class="cls-68" d="M0,16.82H6.53v6.53h0a16,16,0,0,1-2.89-.27A15.36,15.36,0,0,1,1,22.36a15.62,15.62,0,0,1-.73-2.65A16.1,16.1,0,0,1,0,16.82Z"/><path class="cls-69" d="M0,17.07H6.53V23.6h0a16.09,16.09,0,0,1-2.89-.27A15.5,15.5,0,0,1,1,22.6,15.76,15.76,0,0,1,.27,20,16.09,16.09,0,0,1,0,17.07Z"/><path class="cls-70" d="M0,17.32H6.53v6.53h0a15.9,15.9,0,0,1-2.88-.27A15.52,15.52,0,0,1,1,22.83,16.08,16.08,0,0,1,.27,20.2,15.9,15.9,0,0,1,0,17.32Z"/><path class="cls-71" d="M0,17.57H6.53V24.1h0a15,15,0,0,1-2.88-.28A14.44,14.44,0,0,1,1,23.07a14.44,14.44,0,0,1-.75-2.62A15,15,0,0,1,0,17.57Z"/><path class="cls-72" d="M0,17.82H6.53v6.53h0a14.86,14.86,0,0,1-2.87-.28A15.31,15.31,0,0,1,1,23.31a15.31,15.31,0,0,1-.76-2.62A14.86,14.86,0,0,1,0,17.82Z"/><path class="cls-73" d="M0,18.07H6.53V24.6h0a15,15,0,0,1-2.87-.28,15.11,15.11,0,0,1-2.6-.78,14.85,14.85,0,0,1-.78-2.6A15,15,0,0,1,0,18.07Z"/><path class="cls-74" d="M0,18.33H6.53v6.52h0a14.08,14.08,0,0,1-2.86-.29,14.28,14.28,0,0,1-2.6-.78A14.7,14.7,0,0,1,0,18.33Z"/><path class="cls-75" d="M0,18.58H6.53V25.1h0a14.08,14.08,0,0,1-2.86-.29A14.64,14.64,0,0,1,1.09,24a14.2,14.2,0,0,1-.8-2.59A14.06,14.06,0,0,1,0,18.58Z"/><path class="cls-76" d="M0,18.83H6.53v6.52h0a14,14,0,0,1-2.85-.29,13.87,13.87,0,0,1-2.58-.81A14.24,14.24,0,0,1,0,18.83Z"/><path class="cls-77" d="M0,19.08H6.53v6.53h0a13.81,13.81,0,0,1-2.84-.3,14.31,14.31,0,0,1-2.57-.82A13.08,13.08,0,0,1,.3,21.92,13.88,13.88,0,0,1,0,19.08Z"/><path class="cls-78" d="M0,19.33H6.53v6.53h0a13.15,13.15,0,0,1-2.84-.31,13,13,0,0,1-2.56-.83A13.46,13.46,0,0,1,.3,22.16,13.79,13.79,0,0,1,0,19.33Z"/><path class="cls-79" d="M0,19.58H6.53v6.53h0A13.12,13.12,0,0,1,3.7,25.8,13.38,13.38,0,0,1,1.15,25a12.71,12.71,0,0,1-.84-2.55A13.12,13.12,0,0,1,0,19.58Z"/><path class="cls-80" d="M0,19.83H6.53v6.53h0a13.12,13.12,0,0,1-2.83-.31,12.85,12.85,0,0,1-2.54-.85,12.85,12.85,0,0,1-.85-2.54A13.12,13.12,0,0,1,0,19.83Z"/><path class="cls-81" d="M0,20.08H6.53v6.53h0a12.37,12.37,0,0,1-2.82-.32,12,12,0,0,1-2.53-.86A12,12,0,0,1,.32,22.9,12.37,12.37,0,0,1,0,20.08Z"/><path class="cls-82" d="M0,20.33H6.53v6.53h0a12.44,12.44,0,0,1-2.82-.32,12.09,12.09,0,0,1-2.52-.87,12.69,12.69,0,0,1-.87-2.52A12.37,12.37,0,0,1,0,20.33Z"/><path class="cls-83" d="M0,20.58H6.53v6.53h0a12.29,12.29,0,0,1-5.32-1.2,12.12,12.12,0,0,1-.89-2.52A12.87,12.87,0,0,1,0,20.58Z"/><path class="cls-84" d="M0,20.84H6.53v6.52h0A12.28,12.28,0,0,1,3.72,27a12.56,12.56,0,0,1-2.5-.9,11.75,11.75,0,0,1-.89-2.5A12.26,12.26,0,0,1,0,20.84Z"/><path class="cls-85" d="M0,21.09H6.53v6.52h0a11.94,11.94,0,0,1-5.29-1.23,11.08,11.08,0,0,1-.91-2.5A12.11,12.11,0,0,1,0,21.09Z"/><path class="cls-86" d="M0,21.34H6.53v6.52h0a11.59,11.59,0,0,1-2.79-.33,11.72,11.72,0,0,1-2.49-.92,10.92,10.92,0,0,1-.91-2.48A11.59,11.59,0,0,1,0,21.34Z"/><path class="cls-87" d="M0,21.59H6.53v6.53h0a12.11,12.11,0,0,1-2.79-.34,11.86,11.86,0,0,1-2.48-.93A11.69,11.69,0,0,1,0,21.59Z"/><path class="cls-88" d="M0,21.84H6.53v6.53h0A11.44,11.44,0,0,1,3.75,28a11.17,11.17,0,0,1-2.47-.93,11.08,11.08,0,0,1-.94-2.47A11.5,11.5,0,0,1,0,21.84Z"/><path class="cls-89" d="M0,22.09H6.53v6.53h0a11.5,11.5,0,0,1-2.78-.35,10.83,10.83,0,0,1-2.46-.95A11.36,11.36,0,0,1,0,22.09Z"/><path class="cls-90" d="M0,22.34H6.53v6.53h0a11.36,11.36,0,0,1-2.77-.35,11.06,11.06,0,0,1-2.45-1,10.59,10.59,0,0,1-1-2.45A11.36,11.36,0,0,1,0,22.34Z"/><path class="cls-91" d="M0,22.59H6.53v6.53h0a10.89,10.89,0,0,1-2.77-.36,10.25,10.25,0,0,1-2.44-1,10.25,10.25,0,0,1-1-2.44A10.89,10.89,0,0,1,0,22.59Z"/><path class="cls-92" d="M0,22.84H6.53v6.53h0A10.87,10.87,0,0,1,3.77,29a10.05,10.05,0,0,1-2.43-1,10.05,10.05,0,0,1-1-2.43A10.87,10.87,0,0,1,0,22.84Z"/><path class="cls-93" d="M0,23.1H6.53v6.52h0a10.87,10.87,0,0,1-2.76-.36,10.16,10.16,0,0,1-2.42-1,10.6,10.6,0,0,1-1-2.42A10.86,10.86,0,0,1,0,23.1Z"/><path class="cls-94" d="M0,23.35H6.53v6.52h0a10.74,10.74,0,0,1-2.75-.36,10.36,10.36,0,0,1-2.41-1,10.19,10.19,0,0,1-1-2.42A10.3,10.3,0,0,1,0,23.35Z"/><path class="cls-95" d="M0,23.6H6.53v6.52h0a10.24,10.24,0,0,1-2.74-.37,10,10,0,0,1-2.41-1,10.49,10.49,0,0,1-1-2.4A10.3,10.3,0,0,1,0,23.6Z"/><path class="cls-96" d="M0,23.85H6.53v6.52h0A10.24,10.24,0,0,1,3.79,30,9.84,9.84,0,0,1,1.4,29a10.34,10.34,0,0,1-1-2.4A10.17,10.17,0,0,1,0,23.85Z"/><path class="cls-97" d="M0,24.1H6.53v6.53h0a10.11,10.11,0,0,1-2.73-.38,9.88,9.88,0,0,1-2.39-1,9.62,9.62,0,0,1-1-2.38A9.84,9.84,0,0,1,0,24.1Z"/><path class="cls-98" d="M0,24.35H6.53v6.53h0a9.79,9.79,0,0,1-2.73-.39,9.37,9.37,0,0,1-2.37-1,9.66,9.66,0,0,1-1-2.38A10.1,10.1,0,0,1,0,24.35Z"/><path class="cls-99" d="M0,24.6H6.53v6.53h0a9.75,9.75,0,0,1-5.09-1.44A9.75,9.75,0,0,1,0,24.6Z"/><path class="cls-100" d="M0,24.85H6.53v6.53h0A9.72,9.72,0,0,1,3.81,31a9.3,9.3,0,0,1-2.35-1.07A9.3,9.3,0,0,1,.39,27.57,9.72,9.72,0,0,1,0,24.85Z"/><path class="cls-101" d="M0,25.1H6.53v6.53h0a9.28,9.28,0,0,1-5.06-1.47A9.52,9.52,0,0,1,.39,27.81,9.59,9.59,0,0,1,0,25.1Z"/><path class="cls-102" d="M0,25.35H6.53v6.53h0a9.18,9.18,0,0,1-2.7-.4A9,9,0,0,1,1.49,30.4a9.23,9.23,0,0,1-1.49-5Z"/><path class="cls-103" d="M0,25.61H6.53v6.52h0a9.18,9.18,0,0,1-2.7-.4,8.76,8.76,0,0,1-2.33-1.1,9.06,9.06,0,0,1-1.5-5Z"/><path class="cls-104" d="M0,25.86H6.53v6.52h0A9.07,9.07,0,0,1,3.84,32a8.78,8.78,0,0,1-2.33-1.11,9,9,0,0,1-1.1-2.32A8.85,8.85,0,0,1,0,25.86Z"/><path class="cls-105" d="M0,26.11H6.53v6.52h0a8.85,8.85,0,0,1-2.69-.41A8.39,8.39,0,0,1,1.53,31.1,8.54,8.54,0,0,1,.41,28.79,9.05,9.05,0,0,1,0,26.11Z"/><path class="cls-106" d="M0,26.36H6.53v6.53h0a8.85,8.85,0,0,1-5-1.55A9,9,0,0,1,.41,29,9.05,9.05,0,0,1,0,26.36Z"/><path class="cls-107" d="M0,26.61H6.53v6.53h0a8.74,8.74,0,0,1-2.68-.42,8.61,8.61,0,0,1-2.29-1.14,8.52,8.52,0,0,1-1.14-2.3A8.68,8.68,0,0,1,0,26.61Z"/><path class="cls-108" d="M0,26.86H6.53v6.53h0a8.46,8.46,0,0,1-5-1.58A8.42,8.42,0,0,1,.42,29.53,8.68,8.68,0,0,1,0,26.86Z"/><path class="cls-109" d="M0,27.11H6.53v6.53h0a8.39,8.39,0,0,1-2.67-.43,8.25,8.25,0,0,1-2.27-1.16A8.17,8.17,0,0,1,.43,29.77,8.29,8.29,0,0,1,0,27.11Z"/><path class="cls-110" d="M0,27.36H6.53v6.53h0a8.29,8.29,0,0,1-2.66-.43A8.41,8.41,0,0,1,1.6,32.29,8.56,8.56,0,0,1,.43,30,8.29,8.29,0,0,1,0,27.36Z"/><path class="cls-111" d="M0,27.61H6.53v6.53h0a8.22,8.22,0,0,1-2.65-.43,8,8,0,0,1-2.26-1.19A8.07,8.07,0,0,1,.43,30.27,8.33,8.33,0,0,1,0,27.61Z"/><path class="cls-112" d="M0,27.86H6.53v6.53h0a8.16,8.16,0,0,1-4.9-1.63A8.07,8.07,0,0,1,.44,30.51,8.27,8.27,0,0,1,0,27.86Z"/><path class="cls-113" d="M0,28.12H6.53v6.52h0A8,8,0,0,1,1.65,33,8.06,8.06,0,0,1,.44,30.76,8.26,8.26,0,0,1,0,28.12Z"/><path class="cls-114" d="M0,28.37H6.53v6.52h0a8.17,8.17,0,0,1-2.64-.44,7.78,7.78,0,0,1-2.23-1.22A7.63,7.63,0,0,1,.45,31,7.89,7.89,0,0,1,0,28.37Z"/><path class="cls-115" d="M0,28.62H6.53v6.52h0a7.85,7.85,0,0,1-2.63-.45,7.26,7.26,0,0,1-2.22-1.22A7.75,7.75,0,0,1,.45,31.25,7.89,7.89,0,0,1,0,28.62Z"/><path class="cls-116" d="M0,28.87H6.53V35.4h0a7.86,7.86,0,0,1-2.63-.46A7.37,7.37,0,0,1,1.69,33.7,7.65,7.65,0,0,1,0,28.87Z"/><path class="cls-117" d="M0,29.12H6.53v6.53h0a7.8,7.8,0,0,1-2.62-.46,7.44,7.44,0,0,1-2.2-1.25,7.47,7.47,0,0,1-1.25-2.2A7.6,7.6,0,0,1,0,29.12Z"/><path class="cls-118" d="M0,29.37H6.53V35.9h0a7.84,7.84,0,0,1-2.62-.46,7.54,7.54,0,0,1-2.19-1.26A7.54,7.54,0,0,1,0,29.37Z"/><path class="cls-119" d="M0,29.62H6.53v6.53h0a7.51,7.51,0,0,1-2.61-.47,7.18,7.18,0,0,1-2.18-1.27A7.18,7.18,0,0,1,.47,32.23,7.51,7.51,0,0,1,0,29.62Z"/><path class="cls-120" d="M0,29.87H6.53V36.4h0a7.41,7.41,0,0,1-2.6-.47,7.2,7.2,0,0,1-2.18-1.28A7.2,7.2,0,0,1,.47,32.47,7.41,7.41,0,0,1,0,29.87Z"/><path class="cls-121" d="M0,30.12H6.53v6.53h0a7.41,7.41,0,0,1-2.6-.47,7.52,7.52,0,0,1-2.17-1.29A7.52,7.52,0,0,1,.47,32.72,7.41,7.41,0,0,1,0,30.12Z"/><path class="cls-122" d="M0,30.37H6.53V36.9h0a7.14,7.14,0,0,1-2.59-.48,7,7,0,0,1-2.16-1.3A7,7,0,0,1,.48,33,7.23,7.23,0,0,1,0,30.37Z"/><path class="cls-123" d="M0,30.63H6.53v6.52h0a7.14,7.14,0,0,1-2.59-.48,7.26,7.26,0,0,1-2.15-1.31A7.26,7.26,0,0,1,.48,33.21,7.13,7.13,0,0,1,0,30.63Z"/><path class="cls-124" d="M0,30.88H6.53V37.4h0a7,7,0,0,1-4.72-1.8A7.08,7.08,0,0,1,0,30.88Z"/><path class="cls-125" d="M0,31.13H6.53v6.52h0A7.13,7.13,0,0,1,4,37.17a7.24,7.24,0,0,1-2.13-1.34A7,7,0,0,1,0,31.13Z"/><path class="cls-126" d="M0,31.38H6.53v6.53h0A6.84,6.84,0,0,1,4,37.41a6.7,6.7,0,0,1-2.12-1.34A6.9,6.9,0,0,1,.49,34,7,7,0,0,1,0,31.38Z"/><path class="cls-127" d="M0,31.63H6.53v6.53h0A6.78,6.78,0,0,1,1.85,36.3,6.83,6.83,0,0,1,0,31.63Z"/><path class="cls-128" d="M0,31.88H6.53v6.53h0a6.68,6.68,0,0,1-4.66-1.87A6.69,6.69,0,0,1,.5,34.44,6.79,6.79,0,0,1,0,31.88Z"/><path class="cls-129" d="M0,32.13H6.53v6.53h0a6.75,6.75,0,0,1-4.65-1.88,6.58,6.58,0,0,1-1.37-2.1A6.52,6.52,0,0,1,0,32.13Z"/><path class="cls-130" d="M0,32.38H6.53v6.53h0A6.51,6.51,0,0,1,0,32.38Z"/><path class="cls-131" d="M6.53,39.16h0A6.52,6.52,0,0,1,0,32.63H6.53v6.53Z"/></g></g></svg>